<svg width="168" height="37" viewBox="0 0 168 37" fill="none" xmlns="http://www.w3.org/2000/svg">
<g filter="url(#filter0_dd_590_1312)">
<g clip-path="url(#clip0_590_1312)">
<path fill-rule="evenodd" clip-rule="evenodd" d="M49.2741 6.65967C50.7696 6.65967 52.0442 7.04669 53.0982 7.82116C54.1522 8.59575 54.8769 9.62233 55.2725 10.9009V6.8471H57.1384V21.6033H55.2725V17.5497C54.8769 18.8295 54.1522 19.8565 53.0982 20.631C52.0442 21.4056 50.7696 21.7928 49.2741 21.7928C47.9409 21.7928 46.7473 21.4864 45.6932 20.874C44.6393 20.2617 43.8196 19.3833 43.234 18.2387C42.6485 17.0943 42.3555 15.7564 42.3555 14.2252C42.3555 12.6762 42.6485 11.3296 43.234 10.1851C43.8196 9.04175 44.6348 8.16846 45.6799 7.56468C46.7248 6.96112 47.9229 6.65967 49.2741 6.65967ZM49.7604 8.33424C48.1029 8.33424 46.7741 8.86109 45.7736 9.91525C44.7745 10.9693 44.2749 12.406 44.2749 14.2252C44.2749 16.0448 44.7745 17.4815 45.7736 18.5356C46.7741 19.5894 48.1029 20.1163 49.7604 20.1163C50.8052 20.1163 51.7466 19.8734 52.5836 19.387C53.4217 18.9011 54.0794 18.2118 54.5568 17.3199C55.034 16.4281 55.2725 15.3967 55.2725 14.2252C55.2725 13.054 55.034 12.0231 54.5568 11.1321C54.0794 10.2406 53.4217 9.55066 52.5836 9.06374C51.7466 8.57737 50.8052 8.33424 49.7604 8.33424Z" fill="white"/>
<path fill-rule="evenodd" clip-rule="evenodd" d="M69.1354 6.65967C70.4867 6.65967 71.6803 6.96112 72.7162 7.56468C73.7523 8.16846 74.5632 9.04175 75.1488 10.1851C75.7343 11.3296 76.0271 12.6762 76.0271 14.2252C76.0271 15.7564 75.7343 17.0943 75.1488 18.2387C74.5632 19.3833 73.7475 20.2617 72.703 20.874C71.658 21.4864 70.4687 21.7928 69.1354 21.7928C67.6219 21.7928 66.3429 21.4056 65.2979 20.631C64.253 19.8565 63.5326 18.8295 63.1368 17.5497V28.5758H61.2441V6.8471H63.1368V10.9009C63.5326 9.62233 64.253 8.59575 65.2979 7.82116C66.3429 7.04669 67.6219 6.65967 69.1354 6.65967ZM68.6222 8.33424C67.5773 8.33424 66.6357 8.57737 65.7974 9.06374C64.9604 9.55066 64.3076 10.2406 63.8394 11.1321C63.3712 12.0231 63.1368 13.054 63.1368 14.2252C63.1368 15.3967 63.3712 16.4281 63.8394 17.3199C64.3076 18.2118 64.9604 18.9011 65.7974 19.387C66.6357 19.8734 67.5773 20.1163 68.6222 20.1163C70.2975 20.1163 71.631 19.5894 72.6223 18.5356C73.6127 17.4815 74.1077 16.0448 74.1077 14.2252C74.1077 12.406 73.6127 10.9693 72.6223 9.91525C71.631 8.86109 70.2975 8.33424 68.6222 8.33424Z" fill="white"/>
<path fill-rule="evenodd" clip-rule="evenodd" d="M87.3225 6.65967C88.6739 6.65967 89.8676 6.96112 90.9035 7.56468C91.9396 8.16846 92.7506 9.04175 93.3362 10.1851C93.9215 11.3296 94.2145 12.6762 94.2145 14.2252C94.2145 15.7564 93.9215 17.0943 93.3362 18.2387C92.7506 19.3833 91.9351 20.2617 90.8901 20.874C89.8453 21.4864 88.6561 21.7928 87.3225 21.7928C85.8092 21.7928 84.5303 21.4056 83.4854 20.631C82.4403 19.8565 81.7201 18.8295 81.3244 17.5497V28.5758H79.4316V6.8471H81.3244V10.9009C81.7201 9.62233 82.4403 8.59575 83.4854 7.82116C84.5303 7.04669 85.8092 6.65967 87.3225 6.65967ZM86.8097 8.33424C85.7649 8.33424 84.823 8.57737 83.9848 9.06374C83.1479 9.55066 82.4952 10.2406 82.0268 11.1321C81.5585 12.0231 81.3244 13.054 81.3244 14.2252C81.3244 15.3967 81.5585 16.4281 82.0268 17.3199C82.4952 18.2118 83.1479 18.9011 83.9848 19.387C84.823 19.8734 85.7649 20.1163 86.8097 20.1163C88.485 20.1163 89.8182 19.5894 90.8096 18.5356C91.8 17.4815 92.2951 16.0448 92.2951 14.2252C92.2951 12.406 91.8 10.9693 90.8096 9.91525C89.8182 8.86109 88.485 8.33424 86.8097 8.33424Z" fill="white"/>
<path d="M115.159 6.63281H118.726L114.699 21.6034H110.484L107.268 10.7132L103.97 21.6034H99.7559L95.7559 6.63281H99.5665L101.999 18.1986L105.322 6.63281H109.348L112.7 18.1986L115.159 6.63281Z" fill="white"/>
<path d="M124.428 9.49592C124.986 8.54155 125.724 7.78951 126.643 7.23945C127.562 6.69071 128.59 6.4165 129.724 6.4165V10.4967H128.616C125.824 10.4967 124.428 11.7937 124.428 14.3875V21.6032H120.617V6.63261H124.428V9.49592Z" fill="white"/>
<path d="M131.4 2.3342C131.4 1.72189 131.617 1.22228 132.049 0.835475C132.483 0.447909 133.049 0.253906 133.752 0.253906C134.454 0.253906 135.022 0.447909 135.454 0.835475C135.888 1.22228 136.103 1.72189 136.103 2.3342C136.103 2.9289 135.888 3.42009 135.454 3.80799C135.022 4.19566 134.454 4.38966 133.752 4.38966C133.049 4.38966 132.483 4.19566 132.049 3.80799C131.617 3.42009 131.4 2.9289 131.4 2.3342Z" fill="white"/>
<path d="M131.832 6.63281H135.642V21.6034H131.832V6.63281Z" fill="white"/>
<path d="M145.614 18.3328H147.099V21.6033H145.1C143.424 21.6033 142.14 21.1984 141.248 20.388C140.357 19.5765 139.911 18.2255 139.911 16.3343V9.84809H137.83V6.63277H139.911V2.92944H143.721V6.63277H147.073V9.84809H143.721V16.3879C143.721 17.1088 143.866 17.6135 144.153 17.9017C144.442 18.1891 144.929 18.3328 145.614 18.3328Z" fill="white"/>
<path fill-rule="evenodd" clip-rule="evenodd" d="M163.909 13.5498C163.909 13.9285 163.865 14.3611 163.775 14.8472H152.802C152.856 16.1804 153.216 17.1625 153.883 17.7929C154.55 18.4232 155.378 18.7385 156.37 18.7385C157.253 18.7385 157.987 18.5223 158.571 18.0896C159.156 17.6582 159.531 17.0732 159.693 16.3343H163.719C163.521 17.3793 163.099 18.3158 162.45 19.1442C161.801 19.9735 160.967 20.6223 159.951 21.0905C158.932 21.5587 157.802 21.7928 156.56 21.7928C155.1 21.7928 153.803 21.4822 152.667 20.8608C151.532 20.2393 150.65 19.3519 150.02 18.1986C149.388 17.0453 149.072 15.6849 149.072 14.118C149.072 12.5501 149.388 11.1854 150.02 10.0242C150.65 8.86177 151.532 7.97415 152.667 7.36205C153.803 6.74963 155.1 6.44336 156.56 6.44336C158.036 6.44336 159.328 6.74963 160.437 7.36205C161.544 7.97415 162.4 8.81658 163.004 9.88846C163.607 10.9601 163.909 12.1806 163.909 13.5498ZM160.071 13.1727C160.126 11.9465 159.806 11.0181 159.113 10.3881C158.418 9.75748 157.568 9.44246 156.56 9.44246C155.532 9.44246 154.667 9.75748 153.964 10.3881C153.261 11.0181 152.874 11.9465 152.802 13.1727H160.071Z" fill="white"/>
<path d="M14.8508 12.3494C15.03 11.5731 15.1969 10.9187 15.2098 10.8867C15.2225 10.8611 15.4407 10.842 15.6908 10.842C16.0245 10.842 16.1337 10.8611 16.1145 10.9187C16.0952 10.9638 15.9989 11.3483 15.9027 11.7717C15.8137 12.1627 15.5938 13.0895 15.399 13.911L15.351 14.1133C15.2597 14.4989 15.1581 14.9317 15.0633 15.3356C14.9452 15.8386 14.8376 16.2969 14.7735 16.5636L14.5749 17.4491H14.1319C13.8885 17.4491 13.6895 17.4231 13.6895 17.3912C13.6895 17.2758 13.8819 16.4034 14.2029 15.0755C14.3533 14.4208 14.6087 13.3577 14.794 12.5862L14.8508 12.3494Z" fill="white"/>
<path d="M11.1758 14.3057L11.7659 13.664L12.3628 13.0227H12.8953C13.1903 13.0227 13.434 13.0419 13.434 13.0677C13.434 13.0996 13.203 13.3695 12.9209 13.6835C12.6384 13.9916 12.4074 14.2801 12.4074 14.325C12.4074 14.3633 12.6576 14.6716 12.9592 14.9919L13.5111 15.5884H12.3435L11.9329 15.1526C11.7086 14.915 11.4452 14.6263 11.3492 14.5109L11.1758 14.3057Z" fill="white"/>
<path d="M16.498 13.337C16.3633 13.2022 16.2542 13.0806 16.2542 13.0612C16.2542 13.0419 16.5044 13.0227 16.8188 13.0227H17.3773L17.9541 13.6451C18.2751 13.9849 18.5316 14.2865 18.5316 14.3185C18.5316 14.3568 18.2879 14.6522 17.9861 14.9855L17.4409 15.5822L16.8445 15.5884H16.248L16.7804 15.0047C17.0754 14.6905 17.3194 14.3893 17.332 14.344C17.3513 14.2609 16.9987 13.8373 16.498 13.337Z" fill="white"/>
<path fill-rule="evenodd" clip-rule="evenodd" d="M20.3788 24.0892C21.9841 25.0205 23.849 25.5538 25.8385 25.5538C31.8569 25.5538 36.7356 20.6749 36.7356 14.6567C36.7356 8.6385 31.8569 3.75978 25.8385 3.75978C23.8501 3.75978 21.9863 4.29239 20.3814 5.22264C13.7786 1.35169 5.07706 5.43139 4.09884 13.3092C3.61848 17.1781 5.24141 21.0088 8.35474 23.355C12.1135 26.1914 16.8046 26.1467 20.3788 24.0892ZM22.9451 18.4854C22.3183 19.7994 21.3783 20.9353 20.2216 21.7963C19.6703 22.2016 19.0574 22.5529 18.3848 22.838C15.4621 24.0764 12.1005 23.6614 9.56669 21.7491C4.10704 17.629 5.15465 9.1438 11.4526 6.47559C13.7546 5.50039 16.3288 5.55063 18.5563 6.55015L18.5529 6.55317C21.5594 7.90138 23.6799 10.8716 23.8009 14.3502C23.8457 15.7701 23.5549 17.1936 22.9451 18.4854Z" fill="white"/>
</g>
</g>
<defs>
<filter id="filter0_dd_590_1312" x="0" y="0.253906" width="168" height="36.3398" filterUnits="userSpaceOnUse" color-interpolation-filters="sRGB">
<feFlood flood-opacity="0" result="BackgroundImageFix"/>
<feColorMatrix in="SourceAlpha" type="matrix" values="0 0 0 0 0 0 0 0 0 0 0 0 0 0 0 0 0 0 127 0" result="hardAlpha"/>
<feOffset dy="4"/>
<feGaussianBlur stdDeviation="2"/>
<feComposite in2="hardAlpha" operator="out"/>
<feColorMatrix type="matrix" values="0 0 0 0 0 0 0 0 0 0 0 0 0 0 0 0 0 0 0.25 0"/>
<feBlend mode="normal" in2="BackgroundImageFix" result="effect1_dropShadow_590_1312"/>
<feColorMatrix in="SourceAlpha" type="matrix" values="0 0 0 0 0 0 0 0 0 0 0 0 0 0 0 0 0 0 127 0" result="hardAlpha"/>
<feOffset dy="4"/>
<feGaussianBlur stdDeviation="2"/>
<feComposite in2="hardAlpha" operator="out"/>
<feColorMatrix type="matrix" values="0 0 0 0 0 0 0 0 0 0 0 0 0 0 0 0 0 0 0.25 0"/>
<feBlend mode="normal" in2="effect1_dropShadow_590_1312" result="effect2_dropShadow_590_1312"/>
<feBlend mode="normal" in="SourceGraphic" in2="effect2_dropShadow_590_1312" result="shape"/>
</filter>
<clipPath id="clip0_590_1312">
<rect width="159.972" height="28.3398" fill="white" transform="translate(4.01562 0.253906)"/>
</clipPath>
</defs>
</svg>
