<svg width="1728" height="1117" viewBox="0 0 1728 1117" fill="none" xmlns="http://www.w3.org/2000/svg">
<g clip-path="url(#clip0_562_150)">
<rect width="1728" height="1117" fill="#0D0D0D"/>
<g opacity="0.8">
<line x1="315.5" y1="131" x2="315.5" y2="986" stroke="white"/>
<line x1="437.5" y1="131" x2="437.5" y2="986" stroke="white"/>
<line x1="559.5" y1="131" x2="559.5" y2="986" stroke="white"/>
<line x1="681.5" y1="131" x2="681.5" y2="986" stroke="white"/>
<line x1="803.5" y1="131" x2="803.5" y2="986" stroke="white"/>
<line x1="925.5" y1="131" x2="925.5" y2="986" stroke="white"/>
<line x1="1047.5" y1="131" x2="1047.5" y2="986" stroke="white"/>
<line x1="1169.5" y1="131" x2="1169.5" y2="986" stroke="white"/>
<line x1="1291.5" y1="131" x2="1291.5" y2="986" stroke="white"/>
<line x1="1413.5" y1="131" x2="1413.5" y2="986" stroke="white"/>
</g>
<g opacity="0.8">
<line x1="315" y1="984.5" x2="1413" y2="984.5" stroke="white"/>
<line x1="315" y1="862.5" x2="1413" y2="862.5" stroke="white"/>
<line x1="315" y1="740.5" x2="1413" y2="740.5" stroke="white"/>
<line x1="315" y1="618.5" x2="1413" y2="618.5" stroke="white"/>
<line x1="315" y1="496.5" x2="1413" y2="496.5" stroke="white"/>
<line x1="315" y1="374.5" x2="1413" y2="374.5" stroke="white"/>
<line x1="315" y1="252.5" x2="1413" y2="252.5" stroke="white"/>
<line x1="315" y1="130.5" x2="1413" y2="130.5" stroke="white"/>
</g>
<rect x="-2" y="-7" width="1730" height="1124" fill="url(#paint0_radial_562_150)"/>
</g>
<defs>
<radialGradient id="paint0_radial_562_150" cx="0" cy="0" r="1" gradientUnits="userSpaceOnUse" gradientTransform="translate(863 555) rotate(90) scale(562 865)">
<stop stop-color="#000713" stop-opacity="0.4"/>
<stop offset="1" stop-color="#000713"/>
</radialGradient>
<clipPath id="clip0_562_150">
<rect width="1728" height="1117" fill="white"/>
</clipPath>
</defs>
</svg>
