<svg width="200" height="35" viewBox="0 0 200 35" fill="none" xmlns="http://www.w3.org/2000/svg">
<g clip-path="url(#clip0_590_1292)">
<path d="M17.0916 28.0055V34.5938C28.2189 34.5938 36.8781 23.8424 33.2364 12.1617C31.6178 7.06894 27.5715 2.9867 22.4732 1.41038C10.8198 -2.22725 0.0566406 6.46266 0.0566406 17.5777H6.65213C6.65213 10.6257 13.5713 5.20969 20.9356 7.8773C23.6466 8.84734 25.8316 11.0299 26.8028 13.7379C29.4733 21.0941 24.0918 28.0055 17.0916 28.0055Z" fill="white"/>
<path d="M10.5352 28.0462H17.0901V21.4985H10.5352V28.0462Z" fill="white"/>
<path d="M10.5344 33.1006H5.47656V28.0487L10.5344 28.0483V33.1006Z" fill="white"/>
<path d="M1.23047 28.0487H5.43863V23.8452H1.23047V28.0487Z" fill="white"/>
<path fill-rule="evenodd" clip-rule="evenodd" d="M60.054 10.4314C58.1317 9.11754 55.7287 8.44067 52.9253 8.44067H46.8379V27.7113H52.9253C55.7287 27.7113 58.1317 26.9947 60.054 25.6011C61.0952 24.8446 61.9362 23.8094 62.497 22.4955C63.0576 21.1816 63.378 19.6686 63.378 17.9566C63.378 16.2444 63.0977 14.7315 62.497 13.4574C61.9362 12.1436 61.1353 11.1083 60.054 10.4314ZM50.4455 11.6678H52.3279C54.4504 11.6678 56.2126 12.0659 57.5342 12.9021C59.016 13.778 59.7769 15.4901 59.7769 17.9187C59.7769 20.4271 59.016 22.179 57.5342 23.1346C56.2526 23.9707 54.5306 24.4087 52.3679 24.4087H50.4455V11.6678Z" fill="white"/>
<path d="M66.1799 8.75984C66.5804 8.36168 67.061 8.1626 67.6617 8.1626C68.2223 8.1626 68.743 8.4015 69.1835 8.75984C69.584 9.15799 69.7842 9.63577 69.7842 10.233C69.7842 10.8302 69.584 11.3478 69.1835 11.746C68.743 12.1442 68.2624 12.3432 67.6617 12.3432C67.061 12.3432 66.5403 12.1442 66.1398 11.746C65.7394 11.308 65.5391 10.8302 65.5391 10.233C65.5391 9.63577 65.7794 9.15799 66.1799 8.75984Z" fill="white"/>
<path d="M65.9004 14.0933H69.3446V27.6702H65.9004V14.0933Z" fill="white"/>
<path fill-rule="evenodd" clip-rule="evenodd" d="M78.3521 13.8149C79.5937 13.8149 80.755 14.3325 81.7964 15.2483V14.0937H85.1604V26.4365C85.1604 28.467 84.5196 30.1393 83.3182 31.3736C82.1167 32.6078 80.4748 33.2449 78.4322 33.2449C76.9505 33.2449 75.6289 32.8866 74.6276 32.2495C73.6264 31.6124 72.8654 30.9355 72.3449 30.2189L72.2647 30.1393L74.5876 27.9096C75.8291 29.5022 76.7903 30.1393 78.3922 30.1393C79.3934 30.1393 80.2344 29.8207 80.8352 29.2235C81.3959 28.6263 81.7162 27.7503 81.7162 26.6355V26.317C80.7551 27.0337 79.6337 27.392 78.3121 27.392C76.4298 27.392 74.8279 26.755 73.6264 25.4808C72.4249 24.167 71.8242 22.5345 71.8242 20.6234C71.8242 18.6724 72.4249 17.04 73.6665 15.766C74.8679 14.452 76.4699 13.8149 78.3521 13.8149ZM78.5127 24.2476C79.5139 24.2476 80.2748 23.9292 80.8755 23.2522C81.4762 22.5753 81.7967 21.6994 81.7566 20.5846C81.7566 19.5096 81.4762 18.5939 80.8755 17.917C80.2748 17.2401 79.5139 16.9216 78.5127 16.9216C77.5515 16.9216 76.7906 17.2401 76.1899 17.917C75.5891 18.5939 75.3087 19.4697 75.3087 20.5846C75.3087 21.6994 75.5891 22.5753 76.1899 23.2522C76.7506 23.9292 77.5115 24.2476 78.5127 24.2476Z" fill="white"/>
<path d="M88.0879 14.0933H91.532V27.6702H88.0879V14.0933Z" fill="white"/>
<path d="M88.3674 8.75984C88.7679 8.36168 89.2485 8.1626 89.8492 8.1626C90.4499 8.1626 90.9305 8.4015 91.371 8.75984C91.7715 9.15799 91.9717 9.63577 91.9717 10.233C91.9717 10.8302 91.7715 11.3478 91.371 11.746C90.9305 12.1442 90.4499 12.3432 89.8492 12.3432C89.2485 12.3432 88.7278 12.1442 88.3273 11.746C87.9269 11.308 87.7266 10.8302 87.7266 10.233C87.7266 9.63577 87.9669 9.15799 88.3674 8.75984Z" fill="white"/>
<path d="M99.0589 10.4302H95.6947V14.0932H93.7324V17.1988H95.6947V22.8127C95.6947 24.5646 96.0553 25.8387 96.7361 26.5554C97.4569 27.2721 98.6985 27.6702 100.42 27.6702C100.981 27.6702 101.542 27.6702 102.103 27.6304H102.263V24.5248L101.101 24.6044C100.3 24.6044 99.7397 24.4451 99.4593 24.1665C99.179 23.8878 99.0589 23.2906 99.0589 22.3748V17.2386H102.263V14.1331H99.0589V10.4302Z" fill="white"/>
<path d="M121.808 8.39917H118.363V27.6697H121.808V8.39917Z" fill="white"/>
<path d="M156.449 22.8133C155.849 23.4901 155.209 24.0874 154.728 24.4059C154.247 24.7243 153.647 24.8439 152.965 24.8439C151.965 24.8439 151.123 24.4854 150.482 23.7289C149.841 22.9725 149.481 22.0169 149.481 20.8623C149.481 19.7077 149.801 18.7521 150.442 17.9956C151.083 17.2391 151.924 16.8808 152.926 16.8808C154.046 16.8808 155.209 17.5576 156.209 18.7521L158.492 16.6021C157.011 14.6909 155.128 13.8149 152.885 13.8149C151.003 13.8149 149.361 14.4918 148.039 15.8456C146.718 17.1993 146.037 18.8716 146.037 20.9021C146.037 22.9327 146.718 24.6447 148.039 25.9587C149.361 27.3124 151.003 27.9892 152.885 27.9892C155.368 27.9892 157.371 26.9142 158.732 24.9633L156.449 22.8133Z" fill="white"/>
<path fill-rule="evenodd" clip-rule="evenodd" d="M168.586 14.3748C169.386 14.773 170.068 15.3303 170.549 16.0072C171.029 16.684 171.39 17.4008 171.71 18.2369C171.95 19.0331 172.07 19.8693 172.07 20.7453L172.03 21.9795H162.939C163.019 22.8555 163.34 23.5323 163.9 24.0499C164.501 24.6074 165.262 24.886 166.223 24.886C166.863 24.886 167.425 24.7268 167.945 24.4878C168.305 24.3286 168.626 24.0898 168.946 23.7712C169.066 23.6321 169.207 23.4929 169.342 23.3586C169.477 23.2243 169.608 23.0943 169.707 22.9749L171.95 25.1249L171.87 25.2046C170.428 27.0361 168.545 27.9519 166.223 27.9519C164.181 27.9519 162.499 27.275 161.257 26.0008C160.015 24.687 159.375 23.0147 159.375 20.9443C159.375 18.9535 159.935 17.2415 161.096 15.8479C162.258 14.4942 163.82 13.7776 165.743 13.7776C166.824 13.7776 167.785 13.9766 168.586 14.3748ZM163.939 17.5984C163.54 17.9966 163.219 18.5541 163.059 19.191V19.2309H168.346C168.305 18.5938 168.065 18.0762 167.664 17.6383C167.224 17.1605 166.583 16.9216 165.742 16.9216C165.021 16.9216 164.42 17.1605 163.939 17.5984Z" fill="white"/>
<path fill-rule="evenodd" clip-rule="evenodd" d="M183.726 15.1289C182.685 14.253 181.243 13.8149 179.441 13.8149C178.28 13.8149 177.238 14.0538 176.277 14.5317C175.396 14.9696 174.515 15.7261 173.955 16.7215L173.994 16.7613L176.197 18.8716C177.118 17.4381 178.119 16.9205 179.441 16.9205C180.162 16.9205 180.762 17.1197 181.203 17.478C181.644 17.8363 181.884 18.3141 181.884 18.9512V19.6281C181.043 19.3892 180.202 19.2299 179.361 19.2299C177.639 19.2299 176.277 19.6281 175.236 20.4243C174.195 21.2207 173.674 22.3752 173.674 23.8086C173.674 25.0828 174.114 26.1179 174.995 26.8744C175.877 27.6309 176.997 27.9892 178.319 27.9892C179.641 27.9892 180.842 27.4716 181.964 26.5559V27.6707H185.328V18.9512C185.288 17.279 184.768 16.0048 183.726 15.1289ZM177.637 22.4947C178.036 22.216 178.557 22.0966 179.278 22.0966C180.119 22.0966 181.001 22.2558 181.881 22.5744V23.8882C181.121 24.5651 180.119 24.9235 178.918 24.9235C178.317 24.9235 177.877 24.804 177.556 24.5253C177.236 24.2864 177.075 23.9679 177.075 23.5299C177.075 23.092 177.236 22.7337 177.637 22.4947Z" fill="white"/>
<path d="M194.498 13.7734C196.219 13.7734 197.541 14.291 198.502 15.3661C199.463 16.441 199.944 17.9142 199.944 19.7855V27.6292H196.5V19.7855C196.5 18.8697 196.3 18.1531 195.859 17.6355C195.419 17.1179 194.818 16.879 194.057 16.879C193.176 16.879 192.495 17.1577 192.014 17.7549C191.534 18.3521 191.293 19.1485 191.293 20.1837V27.6689H187.85V14.0919H191.214V14.928C192.014 14.1715 193.136 13.7734 194.498 13.7734Z" fill="white"/>
<path fill-rule="evenodd" clip-rule="evenodd" d="M114.044 15.1289C113.003 14.253 111.561 13.8149 109.759 13.8149C108.598 13.8149 107.556 14.0538 106.595 14.5317C105.714 14.9696 104.833 15.7261 104.273 16.7215L104.313 16.7613L106.515 18.8716C107.436 17.4381 108.438 16.9205 109.759 16.9205C110.48 16.9205 111.081 17.1197 111.521 17.478C111.962 17.8363 112.203 18.3141 112.203 18.9512V19.6281C111.362 19.3892 110.521 19.2299 109.68 19.2299C107.957 19.2299 106.595 19.6281 105.554 20.4243C104.513 21.2207 103.992 22.3752 103.992 23.8086C103.992 25.0828 104.433 26.1179 105.314 26.8744C106.195 27.6309 107.316 27.9892 108.638 27.9892C109.959 27.9892 111.161 27.4716 112.282 26.5559V27.6707H115.646V18.9512C115.606 17.279 115.086 16.0048 114.044 15.1289ZM107.954 22.4947C108.355 22.216 108.876 22.0966 109.597 22.0966C110.438 22.0966 111.318 22.2558 112.199 22.5744V23.8882C111.438 24.5651 110.438 24.9235 109.236 24.9235C108.635 24.9235 108.194 24.804 107.874 24.5253C107.554 24.2864 107.394 23.9679 107.394 23.5299C107.394 23.092 107.554 22.7337 107.954 22.4947Z" fill="white"/>
<path fill-rule="evenodd" clip-rule="evenodd" d="M124.254 18.0351C124.254 23.4898 128.739 27.9491 134.226 27.9491C139.753 27.9491 144.198 23.4898 144.198 18.0351C144.198 12.5804 139.712 8.12109 134.226 8.12109C128.739 8.12109 124.254 12.5804 124.254 18.0351ZM127.775 17.9952C127.775 14.4516 130.659 11.5849 134.223 11.5849C137.788 11.5849 140.671 14.4516 140.671 17.9952C140.671 21.5387 137.788 24.4055 134.223 24.4055C130.659 24.4055 127.775 21.5387 127.775 17.9952Z" fill="white"/>
</g>
<defs>
<clipPath id="clip0_590_1292">
<rect width="199.888" height="34.0234" fill="white" transform="translate(0.0566406 0.570312)"/>
</clipPath>
</defs>
</svg>
