<svg width="140" height="37" viewBox="0 0 140 37" fill="none" xmlns="http://www.w3.org/2000/svg">
<g clip-path="url(#clip0_590_1327)">
<path d="M23.1029 4.7504H27.5273C27.7369 4.7504 27.9232 4.5874 27.9232 4.35454V0.395869C27.9232 0.186295 27.7369 0 27.5273 0H23.1029C22.8933 0 22.707 0.163007 22.707 0.395869V4.35454C22.707 4.56411 22.8933 4.7504 23.1029 4.7504Z" fill="white"/>
<path d="M15.1874 10.4323H10.7631C10.5535 10.4323 10.3905 10.246 10.3672 10.0364V6.07775C10.3672 5.84489 10.5535 5.68188 10.7631 5.68188H15.1874C15.4203 5.68188 15.5833 5.86818 15.5833 6.07775V10.0364C15.5833 10.246 15.397 10.4323 15.1874 10.4323Z" fill="white"/>
<path d="M49.7447 13.6226C49.6049 13.5062 48.3475 12.5514 45.6463 12.5514C44.9477 12.5514 44.2258 12.6213 43.5272 12.7377C43.0489 9.41129 40.4392 7.68848 40.0003 7.39873C39.9691 7.37814 39.9488 7.36478 39.9411 7.35861L39.2192 6.93945L38.7535 7.61476C38.1714 8.52292 37.7289 9.54752 37.4728 10.5954C36.9838 12.6213 37.2865 14.5308 38.3111 16.1608C37.0769 16.8594 35.0743 17.0224 34.6551 17.0457H1.58862C0.727018 17.0457 0.0284303 17.7443 0.0284303 18.6059C-0.0181452 21.4934 0.470862 24.3809 1.47218 27.1054C2.6132 30.086 4.3131 32.2982 6.50201 33.6488C8.97035 35.1624 12.9989 36.024 17.5397 36.024C19.5889 36.024 21.6381 35.8377 23.664 35.4652C26.4816 34.9529 29.1829 33.9748 31.6745 32.5544C33.7237 31.3668 35.5633 29.8532 37.1235 28.0834C39.7548 25.126 41.315 21.8194 42.456 18.8853H42.9218C45.786 18.8853 47.5557 17.7443 48.5338 16.7663C49.1858 16.1608 49.6748 15.4157 50.0241 14.5774L50.2337 13.9719L49.7447 13.6226Z" fill="white"/>
<path fill-rule="evenodd" clip-rule="evenodd" d="M64.3447 11.7829C64.3679 11.061 64.9734 10.4789 65.7185 10.5021C66.0911 10.5021 66.4404 10.6419 66.7199 10.898C66.976 11.1542 67.1157 11.5035 67.1157 11.876V24.5438C67.0459 28.6422 63.6693 31.9022 59.571 31.8324C55.4726 31.7625 52.2125 28.386 52.2824 24.2876C52.2824 22.5877 52.8645 20.9577 53.9124 19.6304C56.4739 16.4401 61.1544 15.9278 64.3447 18.4893V11.7829ZM61.5037 28.5723C62.6215 28.0833 63.5063 27.1984 63.9721 26.0807C64.4611 24.9396 64.4611 23.6356 63.9721 22.5179C63.5063 21.4001 62.6215 20.5152 61.5037 20.0262C60.3394 19.5372 59.0354 19.5372 57.8711 20.0262C56.7766 20.492 55.8917 21.3768 55.426 22.4946C54.937 23.6589 54.937 24.9629 55.426 26.104C55.8917 27.1984 56.7533 28.1066 57.8711 28.5723C59.0354 29.0613 60.3394 29.0613 61.5037 28.5723Z" fill="white"/>
<path fill-rule="evenodd" clip-rule="evenodd" d="M70.7234 19.0482C73.6109 16.1607 78.3147 16.1607 81.2022 19.0482C81.9008 19.7235 82.4597 20.5385 82.8322 21.4467C83.2048 22.3548 83.3911 23.3096 83.3911 24.2876V24.5438C83.3213 28.6421 79.9447 31.9022 75.8464 31.8324C71.748 31.7625 68.4879 28.386 68.5577 24.2876C68.5577 22.3316 69.3262 20.4454 70.7234 19.0482ZM79.2462 27.5244C79.6653 27.1052 80.0146 26.6162 80.2475 26.0574C80.7365 24.9396 80.7365 23.6356 80.2475 22.448C80.0146 21.9124 79.6653 21.4001 79.2462 20.981C78.827 20.5618 78.338 20.2125 77.7791 19.9796C76.6148 19.4906 75.3108 19.4906 74.1465 19.9796C73.0287 20.4687 72.1438 21.3302 71.6781 22.448C71.1891 23.6123 71.1891 24.9163 71.6781 26.0574C72.1438 27.1518 73.0287 28.06 74.1465 28.5257C75.3108 29.0147 76.6148 29.0147 77.7791 28.5257C78.3147 28.2928 78.827 27.9436 79.2462 27.5244Z" fill="white"/>
<path d="M111.872 18.2332C111.872 18.047 111.825 17.8607 111.755 17.6977C111.685 17.5347 111.569 17.395 111.453 17.2553C111.336 17.1389 111.173 17.0224 111.01 16.9525C110.847 16.8826 110.661 16.8361 110.475 16.8361C110.218 16.8361 109.962 16.9059 109.729 17.0456L101.812 22.1919V11.8994C101.812 11.5268 101.672 11.1775 101.416 10.9214C101.16 10.6652 100.811 10.5022 100.438 10.5022C99.6697 10.5022 99.0643 11.1076 99.041 11.8761V30.2955C99.041 30.6681 99.1807 31.0174 99.4369 31.2736C99.693 31.553 100.042 31.6927 100.415 31.6927C100.787 31.6927 101.137 31.553 101.393 31.2736C101.649 31.0174 101.812 30.6681 101.789 30.2955V25.5219L103.396 24.474L109.52 31.3434C109.776 31.5763 110.102 31.716 110.451 31.6927C110.638 31.6927 110.824 31.6694 110.987 31.5763C111.15 31.5064 111.29 31.4133 111.429 31.2736C111.546 31.1339 111.662 30.9941 111.732 30.8311C111.802 30.6681 111.848 30.4818 111.848 30.2955C111.848 29.9463 111.709 29.597 111.476 29.3408L105.794 22.9371L111.336 19.3277C111.709 19.0948 111.895 18.6757 111.872 18.2332Z" fill="white"/>
<path d="M90.3776 19.9796C89.8188 20.2124 89.3065 20.5617 88.8873 20.9809C87.071 22.7739 87.071 25.708 88.8873 27.5243C89.3297 27.9435 89.8188 28.2928 90.3776 28.5256C90.9598 28.7818 91.5652 28.8982 92.194 28.8982C92.7295 28.8982 93.2884 28.8051 93.8007 28.6188C94.313 28.4092 94.7787 28.1298 95.1979 27.7572C95.454 27.5709 95.7568 27.4778 96.0828 27.4778H96.1759C96.8978 27.501 97.4799 28.1065 97.4567 28.8517C97.4567 29.2475 97.2937 29.6201 97.0142 29.8762C95.6636 31.0406 93.9404 31.6693 92.1474 31.6693C88.0723 31.646 84.7656 28.3394 84.7656 24.241C84.7656 20.1426 88.0956 16.8126 92.194 16.8126C93.987 16.7661 95.7102 17.4181 97.0375 18.6057C97.3635 18.8618 97.5265 19.2577 97.5265 19.6535C97.5265 20.0261 97.3868 20.3987 97.1306 20.6549C96.8745 20.9343 96.5019 21.074 96.1293 21.0507C95.8033 21.0507 95.4773 20.9576 95.2212 20.748C94.802 20.3754 94.313 20.096 93.8007 19.8864C93.2884 19.7001 92.7528 19.607 92.194 19.607C91.5652 19.607 90.9598 19.7467 90.3776 19.9796Z" fill="white"/>
<path d="M139.371 17.7907C139.092 17.5346 138.789 17.3483 138.439 17.2319C138.044 17.0921 137.624 16.999 137.205 16.9524C136.786 16.9059 136.367 16.8826 135.948 16.8826C135.11 16.8826 134.248 17.0223 133.456 17.325C132.664 17.6044 131.943 18.0236 131.291 18.5359V18.2565C131.267 17.488 130.615 16.9059 129.847 16.9291C129.125 16.9524 128.543 17.5346 128.52 18.2565V30.342C128.543 31.1105 129.195 31.6926 129.963 31.6694C130.685 31.6461 131.267 31.0639 131.291 30.342V24.3109C131.291 23.6822 131.407 23.0767 131.663 22.4946C131.896 21.9357 132.222 21.4467 132.664 21.0275C133.084 20.6084 133.596 20.2591 134.132 20.0262C134.714 19.7934 135.319 19.6536 135.948 19.6536C136.577 19.6536 137.182 19.7701 137.764 19.9796C137.95 20.0728 138.137 20.1194 138.346 20.1194C138.533 20.1194 138.719 20.0961 138.882 20.0029C139.045 19.9331 139.185 19.8399 139.324 19.7002C139.441 19.5838 139.557 19.4208 139.627 19.2578C139.697 19.0948 139.744 18.9085 139.744 18.7222C139.767 18.3729 139.627 18.0469 139.371 17.7907Z" fill="white"/>
<path fill-rule="evenodd" clip-rule="evenodd" d="M119.651 16.8826C122.632 16.9059 125.333 18.6989 126.52 21.4467C126.87 22.3548 127.056 23.3329 127.033 24.3342C127.056 24.7068 126.916 25.0561 126.637 25.3122C126.381 25.5684 126.031 25.7081 125.659 25.7081H115.18C115.32 26.1738 115.529 26.6395 115.832 27.0354C116.111 27.4313 116.461 27.7806 116.857 28.06C117.253 28.3627 117.695 28.5723 118.161 28.7353C118.65 28.8983 119.139 28.9682 119.651 28.9682C120.21 28.9914 120.745 28.8983 121.258 28.712C121.747 28.549 122.189 28.2696 122.585 27.9436L122.608 27.9203C122.608 27.904 122.676 27.8425 122.733 27.791C122.758 27.7687 122.78 27.7482 122.795 27.734C123.26 27.2915 123.959 27.2217 124.495 27.571C125.123 28.0134 125.286 28.875 124.844 29.527C124.774 29.6667 124.658 29.7832 124.541 29.8763L124.495 29.9229C123.144 31.0872 121.421 31.7159 119.651 31.7159C115.553 31.7159 112.223 28.386 112.223 24.2876C112.246 20.1892 115.553 16.8826 119.651 16.8826ZM115.832 21.6097C115.529 22.0056 115.32 22.448 115.18 22.937H124.099C123.936 22.4713 123.726 22.0056 123.423 21.6097C122.841 20.818 122.026 20.2125 121.095 19.9098C120.629 19.7468 120.117 19.6769 119.628 19.6769C119.139 19.6769 118.626 19.7468 118.161 19.9098C117.695 20.0728 117.253 20.3057 116.857 20.5851C116.461 20.8645 116.111 21.2138 115.832 21.6097Z" fill="white"/>
<path fill-rule="evenodd" clip-rule="evenodd" d="M135.065 30.4352C135.065 30.5516 134.995 30.6448 134.879 30.6681C134.972 30.7146 135.042 30.8078 135.019 30.9009C135.019 30.9708 135.042 31.0639 135.088 31.1338H134.856C134.844 31.0989 134.832 31.0581 134.821 31.0174C134.809 30.9766 134.797 30.9359 134.786 30.9009C134.762 30.8078 134.693 30.7612 134.576 30.7612H134.483V31.1338H134.273V30.179C134.39 30.1558 134.53 30.1558 134.646 30.1558C134.762 30.1558 134.879 30.179 134.972 30.2256C135.042 30.2722 135.065 30.3421 135.065 30.4352ZM134.483 30.5982H134.599C134.716 30.6215 134.832 30.5516 134.809 30.4585C134.809 30.3886 134.739 30.3188 134.599 30.3188H134.483V30.5982Z" fill="white"/>
<path fill-rule="evenodd" clip-rule="evenodd" d="M134.646 29.6902C134.111 29.6902 133.691 30.1326 133.691 30.6682C133.691 31.2038 134.134 31.6229 134.669 31.6229C135.205 31.6229 135.624 31.1805 135.624 30.6682C135.624 30.1093 135.182 29.6902 134.646 29.6902ZM134.646 31.4134C134.227 31.4367 133.878 31.1106 133.854 30.6915C133.831 30.2723 134.157 29.923 134.576 29.8998C134.995 29.8765 135.345 30.2025 135.368 30.6216V30.6682C135.391 31.0641 135.065 31.4134 134.646 31.4134Z" fill="white"/>
<path d="M9.08589 16.0907H4.66149C4.45192 16.0907 4.28891 15.9277 4.26562 15.6949V11.7362C4.26562 11.5033 4.45192 11.3403 4.66149 11.3403H9.08589C9.31875 11.3403 9.48175 11.5266 9.48175 11.7362V15.6949C9.48175 15.9277 9.29546 16.0907 9.08589 16.0907Z" fill="white"/>
<path d="M10.7631 16.0907H15.1874C15.397 16.0907 15.5833 15.9277 15.5833 15.6949V11.7362C15.5833 11.5266 15.4203 11.3403 15.1874 11.3403H10.7631C10.5535 11.3403 10.3672 11.5033 10.3672 11.7362V15.6949C10.3905 15.9277 10.5535 16.0907 10.7631 16.0907Z" fill="white"/>
<path d="M21.4042 16.0907H16.9799C16.747 16.0907 16.584 15.9277 16.584 15.6949V11.7362C16.584 11.5033 16.7703 11.3403 16.9799 11.3403H21.4042C21.6371 11.3403 21.8001 11.5266 21.8001 11.7362V15.6949C21.8001 15.9277 21.6138 16.0907 21.4042 16.0907Z" fill="white"/>
<path d="M23.1029 16.0907H27.5273C27.7369 16.0907 27.9232 15.9277 27.9232 15.6949V11.7362C27.9232 11.5266 27.7602 11.3403 27.5273 11.3403H23.1029C22.8933 11.3403 22.707 11.5033 22.707 11.7362V15.6949C22.707 15.9277 22.8933 16.0907 23.1029 16.0907Z" fill="white"/>
<path d="M16.9799 10.4323H21.4042C21.6138 10.4323 21.8001 10.246 21.8001 10.0364V6.07775C21.8001 5.86818 21.6371 5.68188 21.4042 5.68188H16.9799C16.7703 5.68188 16.584 5.84489 16.584 6.07775V10.0364C16.584 10.246 16.747 10.4323 16.9799 10.4323Z" fill="white"/>
<path d="M27.5273 10.4323H23.1029C22.8933 10.4323 22.707 10.246 22.707 10.0364V6.07775C22.707 5.84489 22.8933 5.68188 23.1029 5.68188H27.5273C27.7369 5.68188 27.9232 5.86818 27.9232 6.07775V10.0364C27.9232 10.246 27.7369 10.4323 27.5273 10.4323Z" fill="white"/>
<path d="M33.6992 16.0907H29.2748C29.0652 16.0907 28.9022 15.9277 28.8789 15.6949V11.7362C28.8789 11.5033 29.0652 11.3403 29.2748 11.3403H33.6992C33.932 11.3403 34.095 11.5266 34.095 11.7362V15.6949C34.095 15.9277 33.9087 16.0907 33.6992 16.0907Z" fill="white"/>
</g>
<defs>
<clipPath id="clip0_590_1327">
<rect width="139.951" height="36.0938" fill="white" transform="translate(0.0253906)"/>
</clipPath>
</defs>
</svg>
