<svg width="24" height="24" viewBox="0 0 24 24" fill="none" xmlns="http://www.w3.org/2000/svg">
<path fill-rule="evenodd" clip-rule="evenodd" d="M1.5 4.125C1.5 3.82663 1.61853 3.54048 1.8295 3.3295C2.04048 3.11853 2.32663 3 2.625 3H21.375C21.5227 3 21.669 3.0291 21.8055 3.08564C21.942 3.14217 22.066 3.22504 22.1705 3.3295C22.275 3.43397 22.3578 3.55799 22.4144 3.69448C22.4709 3.83097 22.5 3.97726 22.5 4.125C22.5 4.27274 22.4709 4.41903 22.4144 4.55552C22.3578 4.69201 22.275 4.81603 22.1705 4.9205C22.066 5.02496 21.942 5.10783 21.8055 5.16436C21.669 5.2209 21.5227 5.25 21.375 5.25H2.625C2.32663 5.25 2.04048 5.13147 1.8295 4.9205C1.61853 4.70952 1.5 4.42337 1.5 4.125ZM1.5 11.625C1.5 11.3266 1.61853 11.0405 1.8295 10.8295C2.04048 10.6185 2.32663 10.5 2.625 10.5H21.375C21.6734 10.5 21.9595 10.6185 22.1705 10.8295C22.3815 11.0405 22.5 11.3266 22.5 11.625C22.5 11.9234 22.3815 12.2095 22.1705 12.4205C21.9595 12.6315 21.6734 12.75 21.375 12.75H2.625C2.32663 12.75 2.04048 12.6315 1.8295 12.4205C1.61853 12.2095 1.5 11.9234 1.5 11.625ZM2.625 18C2.32663 18 2.04048 18.1185 1.8295 18.3295C1.61853 18.5405 1.5 18.8266 1.5 19.125C1.5 19.4234 1.61853 19.7095 1.8295 19.9205C2.04048 20.1315 2.32663 20.25 2.625 20.25H21.375C21.6734 20.25 21.9595 20.1315 22.1705 19.9205C22.3815 19.7095 22.5 19.4234 22.5 19.125C22.5 18.8266 22.3815 18.5405 22.1705 18.3295C21.9595 18.1185 21.6734 18 21.375 18H2.625Z" fill="#8B949E"/>
</svg>
