<svg width="25" height="19" viewBox="0 0 25 19" fill="none" xmlns="http://www.w3.org/2000/svg">
<g filter="url(#filter0_dd_593_5236)">
<path d="M14.8497 15.5709C19.0596 14.4429 21.9009 11.3954 21.1959 8.76422C20.4908 6.13302 16.5065 4.91447 12.2966 6.04252C8.08664 7.17056 5.24537 10.218 5.9504 12.8492C6.65542 15.4804 10.6398 16.699 14.8497 15.5709Z" fill="white"/>
<path d="M20.2424 9.01928C20.4751 9.88835 20.1586 10.9705 19.1438 12.0586C18.1402 13.1348 16.5487 14.0946 14.5938 14.6184C12.6388 15.1422 10.781 15.1067 9.37365 14.6766C7.95061 14.2416 7.13539 13.4623 6.90266 12.5942C6.66995 11.7251 6.98653 10.643 8.00131 9.55493C9.00492 8.4787 10.5964 7.51888 12.5513 6.99507C14.5063 6.47127 16.3641 6.50679 17.7715 6.93688C19.1945 7.37191 20.0097 8.1512 20.2424 9.01928Z" stroke="#9A74D0" stroke-width="1.97291"/>
</g>
<defs>
<filter id="filter0_dd_593_5236" x="0.909521" y="0.68949" width="23.3526" height="18.2616" filterUnits="userSpaceOnUse" color-interpolation-filters="sRGB">
<feFlood flood-opacity="0" result="BackgroundImageFix"/>
<feColorMatrix in="SourceAlpha" type="matrix" values="0 0 0 0 0 0 0 0 0 0 0 0 0 0 0 0 0 0 127 0" result="hardAlpha"/>
<feOffset dx="-0.986455" dy="-0.986455"/>
<feGaussianBlur stdDeviation="1.97291"/>
<feComposite in2="hardAlpha" operator="out"/>
<feColorMatrix type="matrix" values="0 0 0 0 0 0 0 0 0 0 0 0 0 0 0 0 0 0 0.15 0"/>
<feBlend mode="normal" in2="BackgroundImageFix" result="effect1_dropShadow_593_5236"/>
<feColorMatrix in="SourceAlpha" type="matrix" values="0 0 0 0 0 0 0 0 0 0 0 0 0 0 0 0 0 0 127 0" result="hardAlpha"/>
<feOffset dx="-0.986455" dy="-0.986455"/>
<feGaussianBlur stdDeviation="0.986455"/>
<feComposite in2="hardAlpha" operator="out"/>
<feColorMatrix type="matrix" values="0 0 0 0 0 0 0 0 0 0 0 0 0 0 0 0 0 0 0.15 0"/>
<feBlend mode="normal" in2="effect1_dropShadow_593_5236" result="effect2_dropShadow_593_5236"/>
<feBlend mode="normal" in="SourceGraphic" in2="effect2_dropShadow_593_5236" result="shape"/>
</filter>
</defs>
</svg>
