<svg width="49" height="56" viewBox="0 0 49 56" fill="none" xmlns="http://www.w3.org/2000/svg">
<rect x="0.328125" width="48" height="56" fill="#DD7DF7"/>
<path fill-rule="evenodd" clip-rule="evenodd" d="M21.1076 21.4784C21.248 21.619 21.3269 21.8096 21.3269 22.0084C21.3269 22.2071 21.248 22.3977 21.1076 22.5384L15.1375 28.5084L21.1076 34.4784C21.1813 34.547 21.2404 34.6298 21.2814 34.7218C21.3224 34.8138 21.3444 34.9131 21.3462 35.0138C21.348 35.1145 21.3294 35.2146 21.2917 35.308C21.254 35.4013 21.1978 35.4862 21.1266 35.5574C21.0554 35.6286 20.9706 35.6848 20.8772 35.7225C20.7838 35.7602 20.6838 35.7787 20.5831 35.777C20.4824 35.7752 20.383 35.7531 20.291 35.7121C20.199 35.6712 20.1162 35.6121 20.0476 35.5384L13.5475 29.0384C13.407 28.8977 13.3281 28.7071 13.3281 28.5084C13.3281 28.3096 13.407 28.119 13.5475 27.9784L20.0476 21.4784C20.1882 21.3379 20.3788 21.259 20.5776 21.259C20.7763 21.259 20.967 21.3379 21.1076 21.4784ZM27.5477 21.4784C27.4072 21.619 27.3283 21.8096 27.3283 22.0084C27.3283 22.2071 27.4072 22.3977 27.5477 22.5384L33.5178 28.5084L27.5477 34.4784C27.474 34.547 27.4149 34.6298 27.3739 34.7218C27.3329 34.8138 27.3109 34.9131 27.3091 35.0138C27.3073 35.1145 27.3258 35.2146 27.3636 35.308C27.4013 35.4013 27.4574 35.4862 27.5286 35.5574C27.5999 35.6286 27.6847 35.6848 27.7781 35.7225C27.8715 35.7602 27.9715 35.7787 28.0722 35.777C28.1729 35.7752 28.2722 35.7531 28.3642 35.7121C28.4562 35.6712 28.539 35.6121 28.6077 35.5384L35.1078 29.0384C35.2483 28.8977 35.3271 28.7071 35.3271 28.5084C35.3271 28.3096 35.2483 28.119 35.1078 27.9784L28.6077 21.4784C28.4671 21.3379 28.2764 21.259 28.0777 21.259C27.8789 21.259 27.6883 21.3379 27.5477 21.4784Z" fill="white"/>
</svg>
