<svg width="140" height="141" viewBox="0 0 140 141" fill="none" xmlns="http://www.w3.org/2000/svg">
<g clip-path="url(#clip0_932_567)">
<rect width="140" height="140" transform="translate(0 0.5)" fill="white"/>
<g clip-path="url(#clip1_932_567)">
<path d="M134.167 0.5H128.333H122.5H116.667H110.833H105H99.1667H93.3333H87.5H81.6667H75.8333H70H64.1667H58.3333H52.5H46.6667H40.8333H35H29.1667H23.3333H17.5H11.6667H5.83333H0V6.33333V12.1667V18V23.8333V29.6667V35.5V41.3333V47.1667V53V58.8333V64.6667V70.5V76.3333V82.1667V88V93.8333V99.6667V105.5V111.333V117.167V123V128.833V134.667V140.5H5.83333H11.6667H17.5H23.3333H29.1667H35H40.8333H46.6667H52.5H58.3333H64.1667H70H75.8333H81.6667H87.5H93.3333H99.1667H105H110.833H116.667H122.5H128.333H134.167H140V134.667V128.833V123V117.167V111.333V105.5V99.6667V93.8333V88V82.1667V76.3333V70.5V64.6667V58.8333V53V47.1667V41.3333V35.5V29.6667V23.8333V18V12.1667V6.33333V0.5H134.167Z" fill="#83B5DC"/>
<path d="M64.1673 18H58.334V23.8333H64.1673V18Z" fill="black"/>
<path d="M69.9993 18H64.166V23.8333H69.9993V18Z" fill="#BF360C"/>
<path d="M75.8333 18H70V23.8333H75.8333V18Z" fill="#BF360C"/>
<path d="M81.6673 18H75.834V23.8333H81.6673V18Z" fill="black"/>
<path d="M52.4993 23.8333H46.666V29.6666H52.4993V23.8333Z" fill="#BF360C"/>
<path d="M58.3333 23.8333H52.5V29.6666H58.3333V23.8333Z" fill="#F9D31E"/>
<path d="M64.1673 23.8333H58.334V29.6666H64.1673V23.8333Z" fill="#F9D31E"/>
<path d="M69.9993 23.8333H64.166V29.6666H69.9993V23.8333Z" fill="#BF360C"/>
<path d="M75.8333 23.8333H70V29.6666H75.8333V23.8333Z" fill="#BF360C"/>
<path d="M81.6673 23.8333H75.834V29.6666H81.6673V23.8333Z" fill="#F9D31E"/>
<path d="M87.4993 23.8333H81.666V29.6666H87.4993V23.8333Z" fill="#F9D31E"/>
<path d="M93.3333 23.8333H87.5V29.6666H93.3333V23.8333Z" fill="#BF360C"/>
<path d="M58.3333 18H52.5V23.8333H58.3333V18Z" fill="black"/>
<path d="M87.4993 18H81.666V23.8333H87.4993V18Z" fill="black"/>
<path d="M52.4993 29.6667H46.666V35.5001H52.4993V29.6667Z" fill="#BF360C"/>
<path d="M58.3333 29.6667H52.5V35.5001H58.3333V29.6667Z" fill="#F9D31E"/>
<path d="M64.1673 29.6667H58.334V35.5001H64.1673V29.6667Z" fill="#F9D31E"/>
<path d="M69.9993 29.6667H64.166V35.5001H69.9993V29.6667Z" fill="#F9D31E"/>
<path d="M75.8333 29.6667H70V35.5001H75.8333V29.6667Z" fill="#F9D31E"/>
<path d="M81.6673 29.6667H75.834V35.5001H81.6673V29.6667Z" fill="#F9D31E"/>
<path d="M87.4993 29.6667H81.666V35.5001H87.4993V29.6667Z" fill="#F9D31E"/>
<path d="M93.3333 29.6667H87.5V35.5001H93.3333V29.6667Z" fill="#BF360C"/>
<path d="M52.4993 35.5H46.666V41.3333H52.4993V35.5Z" fill="#BF360C"/>
<path d="M46.6673 35.5H40.834V41.3333H46.6673V35.5Z" fill="black"/>
<path d="M58.3333 35.5H52.5V41.3333H58.3333V35.5Z" fill="#F9D31E"/>
<path d="M64.1673 35.5H58.334V41.3333H64.1673V35.5Z" fill="#F9D31E"/>
<path d="M69.9993 35.5H64.166V41.3333H69.9993V35.5Z" fill="#F9D31E"/>
<path d="M75.8333 35.5H70V41.3333H75.8333V35.5Z" fill="#F9D31E"/>
<path d="M81.6673 35.5H75.834V41.3333H81.6673V35.5Z" fill="#F9D31E"/>
<path d="M87.4993 35.5H81.666V41.3333H87.4993V35.5Z" fill="#F9D31E"/>
<path d="M93.3333 35.5H87.5V41.3333H93.3333V35.5Z" fill="#BF360C"/>
<path d="M99.1673 35.5H93.334V41.3333H99.1673V35.5Z" fill="black"/>
<path d="M52.4993 41.3333H46.666V47.1666H52.4993V41.3333Z" fill="#F9D31E"/>
<path d="M58.3333 41.3333H52.5V47.1666H58.3333V41.3333Z" fill="#F9D31E"/>
<path d="M64.1673 41.3333H58.334V47.1666H64.1673V41.3333Z" fill="white"/>
<path d="M69.9993 41.3333H64.166V47.1666H69.9993V41.3333Z" fill="#F9D31E"/>
<path d="M75.8333 41.3333H70V47.1666H75.8333V41.3333Z" fill="#F9D31E"/>
<path d="M81.6673 41.3333H75.834V47.1666H81.6673V41.3333Z" fill="white"/>
<path d="M87.4993 41.3333H81.666V47.1666H87.4993V41.3333Z" fill="#F9D31E"/>
<path d="M93.3333 41.3333H87.5V47.1666H93.3333V41.3333Z" fill="#F9D31E"/>
<path d="M46.6673 47.1667H40.834V53.0001H46.6673V47.1667Z" fill="#BF360C"/>
<path d="M52.4993 47.1667H46.666V53.0001H52.4993V47.1667Z" fill="#F9D31E"/>
<path d="M58.3333 47.1667H52.5V53.0001H58.3333V47.1667Z" fill="#F9D31E"/>
<path d="M64.1673 47.1667H58.334V53.0001H64.1673V47.1667Z" fill="#BB9E16"/>
<path d="M69.9993 47.1667H64.166V53.0001H69.9993V47.1667Z" fill="#F9D31E"/>
<path d="M75.8333 47.1667H70V53.0001H75.8333V47.1667Z" fill="#F9D31E"/>
<path d="M81.6673 47.1667H75.834V53.0001H81.6673V47.1667Z" fill="#BB9E16"/>
<path d="M87.4993 47.1667H81.666V53.0001H87.4993V47.1667Z" fill="#F9D31E"/>
<path d="M93.3333 47.1667H87.5V53.0001H93.3333V47.1667Z" fill="#F9D31E"/>
<path d="M99.1673 47.1667H93.334V53.0001H99.1673V47.1667Z" fill="#BF360C"/>
<path d="M46.6673 41.3333H40.834V47.1666H46.6673V41.3333Z" fill="#BF360C"/>
<path d="M99.1673 41.3333H93.334V47.1666H99.1673V41.3333Z" fill="#BF360C"/>
<path d="M46.6673 53H40.834V58.8333H46.6673V53Z" fill="#BF360C"/>
<path d="M52.4993 53H46.666V58.8333H52.4993V53Z" fill="#F9D31E"/>
<path d="M58.3333 53H52.5V58.8333H58.3333V53Z" fill="#F9D31E"/>
<path d="M64.1673 53H58.334V58.8333H64.1673V53Z" fill="#F9D31E"/>
<path d="M69.9993 53H64.166V58.8333H69.9993V53Z" fill="#F9D31E"/>
<path d="M81.6673 53H75.834V58.8333H81.6673V53Z" fill="#F9D31E"/>
<path d="M87.4993 53H81.666V58.8333H87.4993V53Z" fill="#F9D31E"/>
<path d="M93.3333 53H87.5V58.8333H93.3333V53Z" fill="#F9D31E"/>
<path d="M99.1673 53H93.334V58.8333H99.1673V53Z" fill="#BF360C"/>
<path d="M52.4993 64.6667H46.666V70.5001H52.4993V64.6667Z" fill="black"/>
<path d="M58.3333 64.6667H52.5V70.5001H58.3333V64.6667Z" fill="#F9D31E"/>
<path d="M64.1673 64.6667H58.334V70.5001H64.1673V64.6667Z" fill="#BB9E16"/>
<path d="M69.9993 64.6667H64.166V70.5001H69.9993V64.6667Z" fill="#BB9E16"/>
<path d="M75.8333 64.6667H70V70.5001H75.8333V64.6667Z" fill="#BB9E16"/>
<path d="M81.6673 64.6667H75.834V70.5001H81.6673V64.6667Z" fill="#BB9E16"/>
<path d="M87.4993 64.6667H81.666V70.5001H87.4993V64.6667Z" fill="#F9D31E"/>
<path d="M93.3333 64.6667H87.5V70.5001H93.3333V64.6667Z" fill="black"/>
<path d="M52.4993 70.5H46.666V76.3333H52.4993V70.5Z" fill="black"/>
<path d="M93.3333 70.5H87.5V76.3333H93.3333V70.5Z" fill="black"/>
<path d="M58.3333 70.5H52.5V76.3333H58.3333V70.5Z" fill="#F9D31E"/>
<path d="M64.1673 70.5H58.334V76.3333H64.1673V70.5Z" fill="#F9D31E"/>
<path d="M69.9993 70.5H64.166V76.3333H69.9993V70.5Z" fill="#F9D31E"/>
<path d="M75.8333 70.5H70V76.3333H75.8333V70.5Z" fill="#F9D31E"/>
<path d="M81.6673 70.5H75.834V76.3333H81.6673V70.5Z" fill="#F9D31E"/>
<path d="M87.4993 70.5H81.666V76.3333H87.4993V70.5Z" fill="#F9D31E"/>
<path d="M64.1673 76.3333H58.334V82.1666H64.1673V76.3333Z" fill="#601B06"/>
<path d="M58.3333 76.3333H52.5V82.1666H58.3333V76.3333Z" fill="black"/>
<path d="M69.9993 76.3333H64.166V82.1666H69.9993V76.3333Z" fill="#601B06"/>
<path d="M75.8333 76.3333H70V82.1666H75.8333V76.3333Z" fill="#601B06"/>
<path d="M81.6673 76.3333H75.834V82.1666H81.6673V76.3333Z" fill="#601B06"/>
<path d="M87.4993 76.3333H81.666V82.1666H87.4993V76.3333Z" fill="black"/>
<path d="M58.3333 82.1667H52.5V88.0001H58.3333V82.1667Z" fill="black"/>
<path d="M52.4993 82.1667H46.666V88.0001H52.4993V82.1667Z" fill="black"/>
<path d="M64.1673 82.1667H58.334V88.0001H64.1673V82.1667Z" fill="#BF360C"/>
<path d="M69.9993 82.1667H64.166V88.0001H69.9993V82.1667Z" fill="#BF360C"/>
<path d="M75.8333 82.1667H70V88.0001H75.8333V82.1667Z" fill="#BF360C"/>
<path d="M81.6673 82.1667H75.834V88.0001H81.6673V82.1667Z" fill="#BF360C"/>
<path d="M87.4993 82.1667H81.666V88.0001H87.4993V82.1667Z" fill="black"/>
<path d="M93.3333 82.1667H87.5V88.0001H93.3333V82.1667Z" fill="black"/>
<path d="M34.9993 88H29.166V93.8333H34.9993V88Z" fill="black"/>
<path d="M29.1673 88H23.334V93.8333H29.1673V88Z" fill="black"/>
<path d="M23.3333 88H17.5V93.8333H23.3333V88Z" fill="black"/>
<path d="M40.8333 88H35V93.8333H40.8333V88Z" fill="black"/>
<path d="M46.6673 88H40.834V93.8333H46.6673V88Z" fill="black"/>
<path d="M52.4993 88H46.666V93.8333H52.4993V88Z" fill="black"/>
<path d="M58.3333 88H52.5V93.8333H58.3333V88Z" fill="#BF360C"/>
<path d="M64.1673 88H58.334V93.8333H64.1673V88Z" fill="#BF360C"/>
<path d="M69.9993 88H64.166V93.8333H69.9993V88Z" fill="#BF360C"/>
<path d="M75.8333 88H70V93.8333H75.8333V88Z" fill="#BF360C"/>
<path d="M81.6673 88H75.834V93.8333H81.6673V88Z" fill="#BF360C"/>
<path d="M87.4993 88H81.666V93.8333H87.4993V88Z" fill="#BF360C"/>
<path d="M93.3333 88H87.5V93.8333H93.3333V88Z" fill="black"/>
<path d="M99.1673 88H93.334V93.8333H99.1673V88Z" fill="black"/>
<path d="M104.999 88H99.166V93.8333H104.999V88Z" fill="black"/>
<path d="M110.833 88H105V93.8333H110.833V88Z" fill="black"/>
<path d="M116.667 88H110.834V93.8333H116.667V88Z" fill="black"/>
<path d="M122.499 88H116.666V93.8333H122.499V88Z" fill="black"/>
<path d="M29.1673 93.8333H23.334V99.6666H29.1673V93.8333Z" fill="#BF360C"/>
<path d="M23.3333 93.8333H17.5V99.6666H23.3333V93.8333Z" fill="black"/>
<path d="M17.4993 93.8333H11.666V99.6666H17.4993V93.8333Z" fill="black"/>
<path d="M34.9993 93.8333H29.166V99.6666H34.9993V93.8333Z" fill="#BF360C"/>
<path d="M40.8333 93.8333H35V99.6666H40.8333V93.8333Z" fill="#BF360C"/>
<path d="M46.6673 93.8333H40.834V99.6666H46.6673V93.8333Z" fill="#8F290A"/>
<path d="M52.4993 93.8333H46.666V99.6666H52.4993V93.8333Z" fill="#BF360C"/>
<path d="M58.3333 93.8333H52.5V99.6666H58.3333V93.8333Z" fill="#BF360C"/>
<path d="M64.1673 93.8333H58.334V99.6666H64.1673V93.8333Z" fill="#BF360C"/>
<path d="M69.9993 93.8333H64.166V99.6666H69.9993V93.8333Z" fill="#BF360C"/>
<path d="M75.8333 93.8333H70V99.6666H75.8333V93.8333Z" fill="#BF360C"/>
<path d="M81.6673 93.8333H75.834V99.6666H81.6673V93.8333Z" fill="#BF360C"/>
<path d="M87.4993 93.8333H81.666V99.6666H87.4993V93.8333Z" fill="#BF360C"/>
<path d="M93.3333 93.8333H87.5V99.6666H93.3333V93.8333Z" fill="#BF360C"/>
<path d="M99.1673 93.8333H93.334V99.6666H99.1673V93.8333Z" fill="#8F290A"/>
<path d="M104.999 93.8333H99.166V99.6666H104.999V93.8333Z" fill="#BF360C"/>
<path d="M110.833 93.8333H105V99.6666H110.833V93.8333Z" fill="#BF360C"/>
<path d="M116.667 93.8333H110.834V99.6666H116.667V93.8333Z" fill="#BF360C"/>
<path d="M122.499 93.8333H116.666V99.6666H122.499V93.8333Z" fill="black"/>
<path d="M128.333 93.8333H122.5V99.6666H128.333V93.8333Z" fill="black"/>
<path d="M23.3333 99.6667H17.5V105.5H23.3333V99.6667Z" fill="#BF360C"/>
<path d="M29.1673 99.6667H23.334V105.5H29.1673V99.6667Z" fill="#BF360C"/>
<path d="M34.9993 99.6667H29.166V105.5H34.9993V99.6667Z" fill="#BF360C"/>
<path d="M40.8333 99.6667H35V105.5H40.8333V99.6667Z" fill="#8F290A"/>
<path d="M46.6673 99.6667H40.834V105.5H46.6673V99.6667Z" fill="#BF360C"/>
<path d="M52.4993 99.6667H46.666V105.5H52.4993V99.6667Z" fill="#BF360C"/>
<path d="M58.3333 99.6667H52.5V105.5H58.3333V99.6667Z" fill="#BF360C"/>
<path d="M64.1673 99.6667H58.334V105.5H64.1673V99.6667Z" fill="#BF360C"/>
<path d="M69.9993 99.6667H64.166V105.5H69.9993V99.6667Z" fill="#BF360C"/>
<path d="M75.8333 99.6667H70V105.5H75.8333V99.6667Z" fill="#BF360C"/>
<path d="M81.6673 99.6667H75.834V105.5H81.6673V99.6667Z" fill="#BF360C"/>
<path d="M87.4993 99.6667H81.666V105.5H87.4993V99.6667Z" fill="#BF360C"/>
<path d="M93.3333 99.6667H87.5V105.5H93.3333V99.6667Z" fill="#BF360C"/>
<path d="M99.1673 99.6667H93.334V105.5H99.1673V99.6667Z" fill="#BF360C"/>
<path d="M104.999 99.6667H99.166V105.5H104.999V99.6667Z" fill="#8F290A"/>
<path d="M110.833 99.6667H105V105.5H110.833V99.6667Z" fill="#BF360C"/>
<path d="M116.667 99.6667H110.834V105.5H116.667V99.6667Z" fill="#BF360C"/>
<path d="M122.499 99.6667H116.666V105.5H122.499V99.6667Z" fill="#BF360C"/>
<path d="M23.3333 105.5H17.5V111.333H23.3333V105.5Z" fill="#BF360C"/>
<path d="M29.1673 105.5H23.334V111.333H29.1673V105.5Z" fill="#BF360C"/>
<path d="M34.9993 105.5H29.166V111.333H34.9993V105.5Z" fill="#8F290A"/>
<path d="M40.8333 105.5H35V111.333H40.8333V105.5Z" fill="#BF360C"/>
<path d="M46.6673 105.5H40.834V111.333H46.6673V105.5Z" fill="#BF360C"/>
<path d="M52.4993 105.5H46.666V111.333H52.4993V105.5Z" fill="#BF360C"/>
<path d="M58.3333 105.5H52.5V111.333H58.3333V105.5Z" fill="#BF360C"/>
<path d="M64.1673 105.5H58.334V111.333H64.1673V105.5Z" fill="white"/>
<path d="M69.9993 105.5H64.166V111.333H69.9993V105.5Z" fill="white"/>
<path d="M75.8333 105.5H70V111.333H75.8333V105.5Z" fill="white"/>
<path d="M81.6673 105.5H75.834V111.333H81.6673V105.5Z" fill="white"/>
<path d="M87.4993 105.5H81.666V111.333H87.4993V105.5Z" fill="#BF360C"/>
<path d="M93.3333 105.5H87.5V111.333H93.3333V105.5Z" fill="#BF360C"/>
<path d="M99.1673 105.5H93.334V111.333H99.1673V105.5Z" fill="#BF360C"/>
<path d="M104.999 105.5H99.166V111.333H104.999V105.5Z" fill="#BF360C"/>
<path d="M110.833 105.5H105V111.333H110.833V105.5Z" fill="#8F290A"/>
<path d="M116.667 105.5H110.834V111.333H116.667V105.5Z" fill="#BF360C"/>
<path d="M122.499 105.5H116.666V111.333H122.499V105.5Z" fill="#BF360C"/>
<path d="M23.3333 111.333H17.5V117.167H23.3333V111.333Z" fill="#8F290A"/>
<path d="M29.1673 111.333H23.334V117.167H29.1673V111.333Z" fill="#8F290A"/>
<path d="M34.9993 111.333H29.166V117.167H34.9993V111.333Z" fill="#BF360C"/>
<path d="M40.8333 111.333H35V117.167H40.8333V111.333Z" fill="#BF360C"/>
<path d="M46.6673 111.333H40.834V117.167H46.6673V111.333Z" fill="#BF360C"/>
<path d="M52.4993 111.333H46.666V117.167H52.4993V111.333Z" fill="#BF360C"/>
<path d="M58.3333 111.333H52.5V117.167H58.3333V111.333Z" fill="#BF360C"/>
<path d="M64.1673 111.333H58.334V117.167H64.1673V111.333Z" fill="white"/>
<path d="M69.9993 111.333H64.166V117.167H69.9993V111.333Z" fill="white"/>
<path d="M75.8333 111.333H70V117.167H75.8333V111.333Z" fill="white"/>
<path d="M81.6673 111.333H75.834V117.167H81.6673V111.333Z" fill="white"/>
<path d="M87.4993 111.333H81.666V117.167H87.4993V111.333Z" fill="#BF360C"/>
<path d="M93.3333 111.333H87.5V117.167H93.3333V111.333Z" fill="#BF360C"/>
<path d="M99.1673 111.333H93.334V117.167H99.1673V111.333Z" fill="#BF360C"/>
<path d="M104.999 111.333H99.166V117.167H104.999V111.333Z" fill="#BF360C"/>
<path d="M110.833 111.333H105V117.167H110.833V111.333Z" fill="#BF360C"/>
<path d="M116.667 111.333H110.834V117.167H116.667V111.333Z" fill="#8F290A"/>
<path d="M122.499 111.333H116.666V117.167H122.499V111.333Z" fill="#8F290A"/>
<path d="M29.1673 117.167H23.334V123H29.1673V117.167Z" fill="#BF360C"/>
<path d="M34.9993 117.167H29.166V123H34.9993V117.167Z" fill="#BF360C"/>
<path d="M40.8333 117.167H35V123H40.8333V117.167Z" fill="#BF360C"/>
<path d="M46.6673 117.167H40.834V123H46.6673V117.167Z" fill="#BF360C"/>
<path d="M52.4993 117.167H46.666V123H52.4993V117.167Z" fill="#BF360C"/>
<path d="M58.3333 117.167H52.5V123H58.3333V117.167Z" fill="#BF360C"/>
<path d="M64.1673 117.167H58.334V123H64.1673V117.167Z" fill="#BF360C"/>
<path d="M69.9993 117.167H64.166V123H69.9993V117.167Z" fill="white"/>
<path d="M75.8333 117.167H70V123H75.8333V117.167Z" fill="white"/>
<path d="M81.6673 117.167H75.834V123H81.6673V117.167Z" fill="#BF360C"/>
<path d="M87.4993 117.167H81.666V123H87.4993V117.167Z" fill="#BF360C"/>
<path d="M93.3333 117.167H87.5V123H93.3333V117.167Z" fill="#BF360C"/>
<path d="M99.1673 117.167H93.334V123H99.1673V117.167Z" fill="#BF360C"/>
<path d="M104.999 117.167H99.166V123H104.999V117.167Z" fill="#BF360C"/>
<path d="M110.833 117.167H105V123H110.833V117.167Z" fill="#BF360C"/>
<path d="M116.667 117.167H110.834V123H116.667V117.167Z" fill="#BF360C"/>
<path d="M29.1673 123H23.334V128.833H29.1673V123Z" fill="#BF360C"/>
<path d="M34.9993 123H29.166V128.833H34.9993V123Z" fill="#BF360C"/>
<path d="M40.8333 123H35V128.833H40.8333V123Z" fill="#601B06"/>
<path d="M46.6673 123H40.834V128.833H46.6673V123Z" fill="#BF360C"/>
<path d="M52.4993 123H46.666V128.833H52.4993V123Z" fill="#BF360C"/>
<path d="M58.3333 123H52.5V128.833H58.3333V123Z" fill="#BF360C"/>
<path d="M64.1673 123H58.334V128.833H64.1673V123Z" fill="#BF360C"/>
<path d="M69.9993 123H64.166V128.833H69.9993V123Z" fill="#8F290A"/>
<path d="M75.8333 123H70V128.833H75.8333V123Z" fill="#8F290A"/>
<path d="M81.6673 123H75.834V128.833H81.6673V123Z" fill="#BF360C"/>
<path d="M87.4993 123H81.666V128.833H87.4993V123Z" fill="#BF360C"/>
<path d="M93.3333 123H87.5V128.833H93.3333V123Z" fill="#BF360C"/>
<path d="M99.1673 123H93.334V128.833H99.1673V123Z" fill="#BF360C"/>
<path d="M104.999 123H99.166V128.833H104.999V123Z" fill="#601B06"/>
<path d="M110.833 123H105V128.833H110.833V123Z" fill="#BF360C"/>
<path d="M116.667 123H110.834V128.833H116.667V123Z" fill="#BF360C"/>
<path d="M29.1673 128.833H23.334V134.667H29.1673V128.833Z" fill="#BF360C"/>
<path d="M34.9993 128.833H29.166V134.667H34.9993V128.833Z" fill="#BF360C"/>
<path d="M40.8333 128.833H35V134.667H40.8333V128.833Z" fill="#BF360C"/>
<path d="M46.6673 128.833H40.834V134.667H46.6673V128.833Z" fill="black"/>
<path d="M52.4993 128.833H46.666V134.667H52.4993V128.833Z" fill="#601B06"/>
<path d="M58.3333 128.833H52.5V134.667H58.3333V128.833Z" fill="#601B06"/>
<path d="M64.1673 128.833H58.334V134.667H64.1673V128.833Z" fill="#601B06"/>
<path d="M69.9993 128.833H64.166V134.667H69.9993V128.833Z" fill="#601B06"/>
<path d="M75.8333 128.833H70V134.667H75.8333V128.833Z" fill="#601B06"/>
<path d="M81.6673 128.833H75.834V134.667H81.6673V128.833Z" fill="#601B06"/>
<path d="M87.4993 128.833H81.666V134.667H87.4993V128.833Z" fill="#601B06"/>
<path d="M93.3333 128.833H87.5V134.667H93.3333V128.833Z" fill="#601B06"/>
<path d="M99.1673 128.833H93.334V134.667H99.1673V128.833Z" fill="black"/>
<path d="M104.999 128.833H99.166V134.667H104.999V128.833Z" fill="#BF360C"/>
<path d="M110.833 128.833H105V134.667H110.833V128.833Z" fill="#BF360C"/>
<path d="M116.667 128.833H110.834V134.667H116.667V128.833Z" fill="#BF360C"/>
<path d="M29.1673 134.667H23.334V140.5H29.1673V134.667Z" fill="#BF360C"/>
<path d="M23.3333 117.167H17.5V123H23.3333V117.167Z" fill="#BF360C"/>
<path d="M23.3333 123H17.5V128.833H23.3333V123Z" fill="#BF360C"/>
<path d="M23.3333 128.833H17.5V134.667H23.3333V128.833Z" fill="#BF360C"/>
<path d="M23.3333 134.667H17.5V140.5H23.3333V134.667Z" fill="black"/>
<path d="M17.4993 99.6667H11.666V105.5H17.4993V99.6667Z" fill="black"/>
<path d="M17.4993 105.5H11.666V111.333H17.4993V105.5Z" fill="black"/>
<path d="M17.4993 111.333H11.666V117.167H17.4993V111.333Z" fill="black"/>
<path d="M17.4993 117.167H11.666V123H17.4993V117.167Z" fill="black"/>
<path d="M17.4993 123H11.666V128.833H17.4993V123Z" fill="black"/>
<path d="M17.4993 128.833H11.666V134.667H17.4993V128.833Z" fill="black"/>
<path d="M34.9993 134.667H29.166V140.5H34.9993V134.667Z" fill="#BF360C"/>
<path d="M40.8333 134.667H35V140.5H40.8333V134.667Z" fill="#BF360C"/>
<path d="M46.6673 134.667H40.834V140.5H46.6673V134.667Z" fill="black"/>
<path d="M52.4993 134.667H46.666V140.5H52.4993V134.667Z" fill="#BF360C"/>
<path d="M58.3333 134.667H52.5V140.5H58.3333V134.667Z" fill="#BF360C"/>
<path d="M64.1673 134.667H58.334V140.5H64.1673V134.667Z" fill="#BF360C"/>
<path d="M69.9993 134.667H64.166V140.5H69.9993V134.667Z" fill="#BF360C"/>
<path d="M75.8333 134.667H70V140.5H75.8333V134.667Z" fill="#BF360C"/>
<path d="M81.6673 134.667H75.834V140.5H81.6673V134.667Z" fill="#BF360C"/>
<path d="M87.4993 134.667H81.666V140.5H87.4993V134.667Z" fill="#BF360C"/>
<path d="M93.3333 134.667H87.5V140.5H93.3333V134.667Z" fill="#BF360C"/>
<path d="M99.1673 134.667H93.334V140.5H99.1673V134.667Z" fill="black"/>
<path d="M104.999 134.667H99.166V140.5H104.999V134.667Z" fill="#BF360C"/>
<path d="M110.833 134.667H105V140.5H110.833V134.667Z" fill="#BF360C"/>
<path d="M116.667 134.667H110.834V140.5H116.667V134.667Z" fill="#BF360C"/>
<path d="M122.499 117.167H116.666V123H122.499V117.167Z" fill="#BF360C"/>
<path d="M122.499 123H116.666V128.833H122.499V123Z" fill="#BF360C"/>
<path d="M122.499 128.833H116.666V134.667H122.499V128.833Z" fill="#BF360C"/>
<path d="M122.499 134.667H116.666V140.5H122.499V134.667Z" fill="black"/>
<path d="M128.333 99.6667H122.5V105.5H128.333V99.6667Z" fill="black"/>
<path d="M128.333 105.5H122.5V111.333H128.333V105.5Z" fill="black"/>
<path d="M128.333 111.333H122.5V117.167H128.333V111.333Z" fill="black"/>
<path d="M128.333 117.167H122.5V123H128.333V117.167Z" fill="black"/>
<path d="M128.333 123H122.5V128.833H128.333V123Z" fill="black"/>
<path d="M128.333 128.833H122.5V134.667H128.333V128.833Z" fill="black"/>
<path d="M75.8333 53H70V58.8333H75.8333V53Z" fill="#F9D31E"/>
<path d="M46.6673 58.8333H40.834V64.6666H46.6673V58.8333Z" fill="#BF360C"/>
<path d="M52.4993 58.8333H46.666V64.6666H52.4993V58.8333Z" fill="#BB9E16"/>
<path d="M58.3333 58.8333H52.5V64.6666H58.3333V58.8333Z" fill="#BB9E16"/>
<path d="M64.1673 58.8333H58.334V64.6666H64.1673V58.8333Z" fill="#F9D31E"/>
<path d="M69.9993 58.8333H64.166V64.6666H69.9993V58.8333Z" fill="#F9D31E"/>
<path d="M81.6673 58.8333H75.834V64.6666H81.6673V58.8333Z" fill="#F9D31E"/>
<path d="M87.4993 58.8333H81.666V64.6666H87.4993V58.8333Z" fill="#BB9E16"/>
<path d="M93.3333 58.8333H87.5V64.6666H93.3333V58.8333Z" fill="#BB9E16"/>
<path d="M99.1673 58.8333H93.334V64.6666H99.1673V58.8333Z" fill="#BF360C"/>
<path d="M75.8333 58.8333H70V64.6666H75.8333V58.8333Z" fill="#F9D31E"/>
<path d="M52.4993 18H46.666V23.8333H52.4993V18Z" fill="black"/>
<path d="M93.3333 18H87.5V23.8333H93.3333V18Z" fill="black"/>
<path d="M46.6673 23.8333H40.834V29.6666H46.6673V23.8333Z" fill="black"/>
<path d="M46.6673 29.6667H40.834V35.5001H46.6673V29.6667Z" fill="black"/>
<path d="M99.1673 23.8333H93.334V29.6666H99.1673V23.8333Z" fill="black"/>
<path d="M99.1673 29.6667H93.334V35.5001H99.1673V29.6667Z" fill="black"/>
</g>
</g>
<defs>
<clipPath id="clip0_932_567">
<rect width="140" height="140" fill="white" transform="translate(0 0.5)"/>
</clipPath>
<clipPath id="clip1_932_567">
<rect width="140" height="140" fill="white" transform="translate(0 0.5)"/>
</clipPath>
</defs>
</svg>
