<svg width="25" height="24" viewBox="0 0 25 24" fill="none" xmlns="http://www.w3.org/2000/svg">
<path fill-rule="evenodd" clip-rule="evenodd" d="M12.5 0C5.87 0 0.5 5.37 0.5 12C0.5 17.31 3.935 21.795 8.705 23.385C9.305 23.49 9.53 23.13 9.53 22.815C9.53 22.53 9.515 21.585 9.515 20.58C6.5 21.135 5.72 19.845 5.48 19.17C5.345 18.825 4.76 17.76 4.25 17.475C3.83 17.25 3.23 16.695 4.235 16.68C5.18 16.665 5.855 17.55 6.08 17.91C7.16 19.725 8.885 19.215 9.575 18.9C9.68 18.12 9.995 17.595 10.34 17.295C7.67 16.995 4.88 15.96 4.88 11.37C4.88 10.065 5.345 8.985 6.11 8.145C5.99 7.845 5.57 6.615 6.23 4.965C6.23 4.965 7.235 4.65 9.53 6.195C10.49 5.925 11.51 5.79 12.53 5.79C13.55 5.79 14.57 5.925 15.53 6.195C17.825 4.635 18.83 4.965 18.83 4.965C19.49 6.615 19.07 7.845 18.95 8.145C19.715 8.985 20.18 10.05 20.18 11.37C20.18 15.975 17.375 16.995 14.705 17.295C15.14 17.67 15.515 18.39 15.515 19.515C15.515 21.12 15.5 22.41 15.5 22.815C15.5 23.13 15.725 23.505 16.325 23.385C18.7072 22.5808 20.7773 21.0498 22.2438 19.0074C23.7103 16.9651 24.4994 14.5143 24.5 12C24.5 5.37 19.13 0 12.5 0Z" fill="white"/>
</svg>
