<svg width="16" height="17" viewBox="0 0 16 17" fill="none" xmlns="http://www.w3.org/2000/svg">
<path d="M8.00036 16.5C8.48761 16.5002 8.95817 16.3225 9.32366 16.0002C9.68916 15.678 9.92445 15.2334 9.98536 14.75C10.0024 14.613 9.88836 14.5 9.75036 14.5H6.25036C6.11236 14.5 5.99836 14.613 6.01536 14.75C6.07626 15.2334 6.31156 15.678 6.67705 16.0002C7.04255 16.3225 7.5131 16.5002 8.00036 16.5Z" fill="white"/>
<path fill-rule="evenodd" clip-rule="evenodd" d="M7.99992 2C7.07167 2 6.18143 2.36875 5.52505 3.02513C4.86867 3.6815 4.49992 4.57174 4.49992 5.5V8.447C4.49992 8.793 4.39792 9.13 4.20592 9.417L2.50292 11.973C2.50096 11.976 2.49991 11.9794 2.49992 11.983L2.50092 11.989C2.50092 11.991 2.50292 11.993 2.50492 11.995C2.50662 11.9967 2.50866 11.9981 2.51092 11.999L2.51792 12H13.4819L13.4889 11.999C13.4912 11.9981 13.4933 11.9968 13.4949 11.995C13.4967 11.9933 13.4981 11.9913 13.4989 11.989L13.4999 11.982C13.5 11.9784 13.4989 11.9749 13.4969 11.972L11.7939 9.418C11.6024 9.13075 11.5001 8.79326 11.4999 8.448V5.5C11.4999 4.57174 11.1312 3.6815 10.4748 3.02513C9.81842 2.36875 8.92818 2 7.99992 2ZM2.99992 5.5C2.99992 4.17392 3.52671 2.90215 4.46439 1.96447C5.40207 1.02678 6.67384 0.5 7.99992 0.5C9.32601 0.5 10.5978 1.02678 11.5355 1.96447C12.4731 2.90215 12.9999 4.17392 12.9999 5.5V8.447C12.9999 8.497 13.0149 8.545 13.0419 8.586L14.7449 11.141C14.8971 11.3696 14.9843 11.6352 14.9974 11.9095C15.0106 12.1837 14.9491 12.4564 14.8194 12.6985C14.6898 12.9406 14.497 13.143 14.2615 13.2841C14.0259 13.4253 13.7565 13.4999 13.4819 13.5H2.51792C2.24318 13.5 1.97358 13.4254 1.73789 13.2842C1.5022 13.143 1.30925 12.9405 1.17961 12.6983C1.04997 12.456 0.988507 12.1831 1.00177 11.9087C1.01503 11.6343 1.10253 11.3686 1.25492 11.14L2.95792 8.586C2.98537 8.54484 2.99999 8.49647 2.99992 8.447V5.5Z" fill="white"/>
</svg>
