<svg width="108" height="44" viewBox="0 0 108 44" fill="none" xmlns="http://www.w3.org/2000/svg">
<g clip-path="url(#clip0_593_5273)">
<mask id="mask0_593_5273" style="mask-type:alpha" maskUnits="userSpaceOnUse" x="0" y="0" width="108" height="44">
<path d="M0.421875 0.154297H107.299V43.0793H0.421875V0.154297Z" fill="white"/>
</mask>
<g mask="url(#mask0_593_5273)">
<path d="M106.879 32.8316H101.311L102.231 29.1593H91.0533L90.1373 32.8316H84.7396V32.0775C84.8228 31.6628 84.8948 31.2292 84.997 30.7654C85.9812 26.8066 88.5891 22.8931 93.1048 22.8931C94.8913 22.8931 96.6666 23.5718 96.4244 26.0338H103.067C103.328 24.8838 103.768 22.9271 102.515 21.1324C101.099 19.1793 98.245 18.3951 94.547 18.3951C91.8973 18.3951 88.063 18.8136 84.7396 20.9778V0.995076H106.879V32.8316ZM93.8126 38.2119C92.5858 38.4459 91.3408 38.5721 90.0918 38.5889C86.901 38.5889 84.679 37.1109 84.6338 33.6649H94.9444L93.8126 38.2119ZM81.0566 20.0314V24.5935C79.6787 26.4894 78.6779 28.6305 78.1081 30.9012C77.941 31.5346 77.8233 32.1801 77.7561 32.8316H74.5045L77.2829 19.6884H67.9261L59.5382 32.8316H58.9175V1.00262H81.0453L81.0566 20.0314ZM68.6983 32.8316H65.3712L70.409 24.9366L68.6983 32.8316ZM55.2647 19.6581H49.7271L45.942 32.8316H40.0523C43.0464 31.7307 44.867 29.623 45.431 26.5012C45.8928 24.0732 45.6733 22.4746 44.674 21.2794C43.1826 19.4997 40.1923 19.6506 37.5352 19.6506H33.1445V1.00262H55.2572L55.2647 19.6581ZM51.7257 32.8316L54.0572 24.5935L54.1368 32.8316H51.7257ZM35.6199 29.6985C35.4041 29.6985 35.1884 29.7286 34.9423 29.7286C34.6168 29.7286 34.367 29.7286 34.1286 29.7286H32.713L33.3677 27.3157L33.6743 26.1205L34.4314 23.3153H35.389H36.4867C38.3565 23.3153 39.5413 23.4209 39.9729 24.0204C40.3021 24.469 40.2605 25.2495 39.8707 26.4295C39.2045 28.4693 38.3565 29.5024 35.635 29.7097M29.4653 20.827L29.1208 21.958L25.9527 32.4621L25.8278 32.8391H15.411L14.5972 31.1086L25.8278 19.6884H18.6132L9.83173 29.1141L12.6744 19.6884H7.35246V1.00262H29.4653V20.827ZM83.8994 0.154297V21.5734C83.1774 22.145 82.5121 22.7837 81.9121 23.4812V0.154297H58.0924V19.6581H56.1202V0.154297H32.2966V19.6884H30.3244V0.154297H6.50082V22.4369L0.421875 42.608H5.77028L8.45395 33.6686H9.21097L13.6585 42.608H20.1197L15.8161 33.6686H25.578L22.8715 42.608H28.712L31.3842 33.6911H32.6675V33.6686H45.6694L43.0918 42.5817H48.9815L51.4796 33.6686H54.1292L54.2012 42.5817H59.1446L64.8223 33.6686H68.5354L66.6203 42.5817H72.419L74.3116 33.6686H77.6653C77.5328 36.4322 78.2406 38.9471 80.0801 40.6286C82.3285 42.6873 85.7805 43.0793 88.3356 43.0793C91.9628 43.0358 95.574 42.5945 99.1043 41.7635L101.114 33.6686H107.734V0.154297H83.8994Z" fill="white" fill-opacity="0.6"/>
</g>
</g>
<defs>
<clipPath id="clip0_593_5273">
<rect width="107.312" height="43.9981" fill="white" transform="translate(0.421875 0.000976562)"/>
</clipPath>
</defs>
</svg>
