<svg width="170" height="44" viewBox="0 0 170 44" fill="none" xmlns="http://www.w3.org/2000/svg">
<g clip-path="url(#clip0_593_5281)">
<path d="M108.178 15.5023C107.212 15.7588 106.343 15.9137 105.262 16.0291V16.3577C106.478 16.3577 106.633 16.4937 106.633 17.4988V20.8776C105.918 19.7188 105.358 19.3719 104.316 19.3719C102.25 19.3719 100.803 21.3216 100.803 24.1033C100.803 26.885 102.27 28.8364 104.374 28.8364C105.475 28.8364 106.227 28.3353 106.767 27.2536C106.845 27.9867 106.846 28.0638 107.039 28.7981C107.83 28.5467 108.158 28.469 109.298 28.3341L109.586 28.2947V27.9667C108.293 27.9284 108.178 27.8313 108.178 26.6536V15.5023ZM56.0868 15.6428C55.478 15.7136 54.8654 15.7463 54.2525 15.7406C53.7114 15.7406 53.4223 15.7217 52.6703 15.6634V16.1446C54.0017 16.2223 54.2714 16.4154 54.2714 17.3045V17.4211L53.8657 26.9044C53.8274 27.9478 53.6354 28.1015 52.284 28.1987V28.6627C53.2886 28.585 53.6726 28.5661 54.2131 28.5661C54.7543 28.5661 55.1394 28.585 56.1251 28.6627V28.1987C54.7731 28.1015 54.5223 27.9278 54.5223 27.0781V26.9044L54.9085 16.88L58.0742 25.437L58.3062 26.1124L58.5776 26.865L58.8473 27.6193L59.0605 28.2381H59.3508L59.5616 27.6004L59.8125 26.865L60.0822 26.1518L60.3142 25.5124L63.5004 16.8988L63.6741 26.9044V27.001C63.6741 27.909 63.385 28.121 62.0713 28.1987V28.6627C63.2879 28.5467 63.7507 28.5084 64.485 28.5084C65.2175 28.5084 65.6815 28.5467 66.8981 28.6627V28.1987C65.5078 28.1015 65.3335 27.9478 65.3147 26.9044L65.1033 17.4211V17.2857C65.1033 16.416 65.3924 16.2228 66.7055 16.1446V15.6634C65.9718 15.7217 65.6627 15.7406 65.1804 15.7406C64.601 15.7406 64.1964 15.7206 63.3273 15.6428L59.6788 25.4176L56.0868 15.6428ZM131.186 15.72V16.2046C132.576 16.2811 132.77 16.4348 132.77 17.4783V26.8456C132.77 27.889 132.616 28.0233 131.186 28.1398V28.6038H136.071C137.499 28.6038 138.272 28.4301 139.082 27.9284C140.049 27.3101 140.685 26.1307 140.685 24.9136C140.685 23.8713 140.241 22.9256 139.488 22.3462C139.082 22.0376 138.657 21.8628 137.962 21.7273C139.353 21.2062 140.087 20.2211 140.087 18.8697C140.087 17.864 139.662 16.9748 138.928 16.4154C138.271 15.9326 137.518 15.7194 136.263 15.7194H131.186V15.72ZM134.391 16.32H136.032C137.654 16.32 138.368 17.1108 138.368 18.9079C138.368 19.7959 138.157 20.4336 137.732 20.9359C137.307 21.4188 136.786 21.5736 135.703 21.5736H134.391V16.32ZM89.9892 19.0817L89.4669 20.0662C88.8492 19.4674 88.3281 19.2548 87.4984 19.2548C85.2201 19.2548 83.675 21.2262 83.675 24.1033C83.675 26.9233 85.2007 28.8175 87.4401 28.8175C89.1784 28.8175 90.2778 27.6958 90.5286 25.629H89.7366C89.5052 27.329 88.7904 28.1798 87.5927 28.1798C86.107 28.1798 85.3544 26.8084 85.3544 24.1033C85.3544 21.3411 86.2053 19.7776 87.6527 19.7776C88.8309 19.7776 89.5441 20.5879 89.8909 22.2679H90.3172V19.0817H89.9892ZM124.582 19.1399L124.254 19.9308C123.597 19.4874 123.038 19.3137 122.285 19.3137C120.586 19.3137 119.389 20.3565 119.389 21.8828C119.389 23.0027 119.835 23.5433 121.243 24.201L122.131 24.605L122.864 24.9336C123.81 25.3587 124.178 25.8027 124.178 26.4593C124.178 27.445 123.328 28.1987 122.189 28.1987C120.837 28.1987 120.026 27.349 119.678 25.5913L119.255 25.6101V28.8364H119.602L120.064 27.9667C120.798 28.5461 121.493 28.7781 122.381 28.7781C124.197 28.7781 125.49 27.6204 125.49 25.997C125.49 24.8576 124.968 24.2387 123.501 23.6016L122.69 23.2542C120.933 22.4816 120.645 22.2313 120.645 21.4582C120.645 20.5502 121.436 19.8548 122.458 19.8548C123.675 19.8548 124.312 20.5891 124.485 22.1336H124.93V19.1394H124.582V19.1399ZM153.121 19.1399C152.351 19.4108 151.692 19.5645 150.572 19.7194V20.0474C150.669 20.0474 150.767 20.0662 150.824 20.0662C151.79 20.0662 151.904 20.1834 151.924 20.9748V27.233C151.924 28.0633 151.732 28.2181 150.555 28.2758V28.6627C151.559 28.5655 151.963 28.5472 152.638 28.5472C153.334 28.5472 153.72 28.5655 154.725 28.6627V28.2758C153.72 28.2375 153.47 28.0438 153.47 27.2724V22.5959C153.47 21.0125 154.164 20.1834 155.477 20.1834C156.712 20.1834 157.214 20.8588 157.214 22.5393V27.2724C157.214 28.0438 156.963 28.2375 155.92 28.2758V28.6627C156.924 28.5655 157.31 28.5472 158.025 28.5472C158.719 28.5472 159.107 28.5655 160.131 28.6627V28.2758C158.952 28.2187 158.758 28.0633 158.758 27.233V22.5959C158.758 21.8628 158.662 21.3216 158.468 20.8588C158.083 19.9119 157.079 19.3137 155.92 19.3137C154.802 19.3137 154.009 19.7771 153.313 20.8205C153.274 20.0862 153.218 19.5845 153.121 19.1399ZM78.8197 19.1777C78.0271 19.4091 77.3711 19.5262 76.2705 19.6228V19.9702H76.5214C77.5248 19.9891 77.6225 20.0868 77.6414 20.9171V27.233C77.6414 28.0633 77.43 28.2181 76.2517 28.2758V28.6627C77.314 28.5655 77.7191 28.5455 78.4145 28.5455C79.0899 28.5455 79.4956 28.5655 80.5562 28.6627V28.2758C79.3791 28.2187 79.1859 28.0633 79.1859 27.233V23.1959C79.1859 21.2828 79.8225 20.0679 80.8259 20.0679C81.1733 20.0679 81.4065 20.2594 81.4065 20.5308V20.7039L81.367 20.8982C81.3482 20.9759 81.3293 21.0525 81.3293 21.0902C81.3293 21.4776 81.6768 21.7473 82.1213 21.7473C82.6036 21.7473 82.9322 21.3793 82.9322 20.8193C82.9322 19.8931 82.2173 19.2554 81.2522 19.2554C80.2488 19.2554 79.4174 19.8931 78.9934 20.9942V20.7811C78.9539 20.2016 78.9157 19.8931 78.8197 19.1777ZM71.5877 19.2554C69.2706 19.2554 67.8238 21.1285 67.8238 24.1033C67.8238 27.0776 69.2706 28.8175 71.7609 28.8175C73.6529 28.8175 74.8883 27.6381 75.1397 25.6484H74.3683C74.1363 27.2907 73.2866 28.1798 71.9157 28.1798C70.1592 28.1798 69.3872 26.8284 69.3683 23.8142H75.1208C75.0826 20.8399 73.866 19.2554 71.5877 19.2554ZM95.6691 19.2554C93.352 19.2554 91.904 21.1285 91.904 24.1033C91.904 27.0776 93.352 28.8175 95.8423 28.8175C97.7343 28.8175 98.9708 27.6381 99.2211 25.6484H98.4485C98.2171 27.2907 97.368 28.1798 95.9971 28.1798C94.2406 28.1798 93.4675 26.8284 93.448 23.8142H99.2022C99.1628 20.8399 97.9474 19.2554 95.6691 19.2554ZM114.083 19.2554C111.766 19.2554 110.318 21.1285 110.318 24.1033C110.318 27.0776 111.766 28.8175 114.256 28.8175C116.148 28.8175 117.384 27.6381 117.635 25.6484H116.862C116.63 27.2907 115.782 28.1798 114.411 28.1798C112.655 28.1798 111.882 26.8284 111.862 23.8142H117.616C117.577 20.8399 116.36 19.2554 114.083 19.2554ZM146.018 19.2554C143.701 19.2554 142.253 21.1285 142.253 24.1033C142.253 27.0776 143.701 28.8175 146.191 28.8175C148.083 28.8175 149.319 27.6381 149.57 25.6484H148.797C148.566 27.2907 147.718 28.1798 146.348 28.1798C144.59 28.1798 143.818 26.8284 143.799 23.8142H149.551C149.512 20.8399 148.296 19.2554 146.018 19.2554ZM161.537 19.4868L161.091 21.9982H161.479C162.174 20.2599 162.482 19.9891 163.738 19.9891H166.11L160.88 28.6044H167.52L168.024 25.8233H167.618C167.038 27.581 166.498 28.1021 165.184 28.1021H162.927L168.178 19.4868H161.537ZM71.5689 19.7571C72.8237 19.7571 73.4603 20.8388 73.5769 23.1187H69.4061C69.5992 20.8976 70.3329 19.7571 71.5689 19.7571ZM95.6486 19.7571C96.9034 19.7571 97.5405 20.8388 97.6565 23.1187H93.4857C93.6789 20.8976 94.4126 19.7571 95.6486 19.7571ZM114.064 19.7571C115.319 19.7571 115.956 20.8388 116.072 23.1187H111.901C112.094 20.8976 112.828 19.7571 114.064 19.7571ZM145.999 19.7571C147.254 19.7571 147.891 20.8388 148.007 23.1187H143.837C144.029 20.8976 144.763 19.7571 145.999 19.7571ZM104.49 19.9114C105.918 19.9114 106.652 21.3811 106.652 24.2199C106.652 26.905 105.938 28.2947 104.548 28.2947C103.158 28.2947 102.425 26.8467 102.425 24.0844C102.425 21.2833 103.099 19.9114 104.49 19.9114ZM134.391 22.173H136.226C137.249 22.173 137.827 22.3456 138.271 22.7902C138.716 23.2347 138.966 24.0645 138.966 24.9919C138.966 26.9233 138.001 28.0061 136.282 28.0061H135.589C134.565 28.0061 134.391 27.8501 134.391 27.0004V22.173ZM126.648 22.9388V23.9376H130.962V22.9388H126.648ZM22.397 8.3098C22.397 8.03266 22.313 8.02352 22.2907 8.29952L21.4073 21.4742L22.2861 21.9885L22.3964 8.31037L22.397 8.3098ZM18.2736 24.5519L21.9821 22.4965L21.1398 22.0279L18.1696 24.4599C18.0039 24.6022 18.0782 24.661 18.2736 24.5519Z" fill="white" fill-opacity="0.6"/>
<path d="M22.4601 1.25391C10.7003 1.24819 1.16211 10.6938 1.16211 22.3348C1.16211 33.9758 10.6934 43.4116 22.4601 43.4156C34.2268 43.4191 43.7667 33.9758 43.7667 22.3348C43.7667 10.6932 34.2354 1.25391 22.4601 1.25391ZM22.4601 42.6128C14.4568 42.6128 8.17687 38.4506 5.18606 32.7272L5.64834 32.5575C6.42547 33.8255 7.44088 34.9403 8.80487 36.4472C10.486 38.2951 15.8025 41.8642 22.4561 41.8642C25.8144 41.8764 29.12 41.0296 32.0588 39.4043C34.9983 37.7785 37.4734 35.4283 39.249 32.5769C39.5176 32.5015 39.6033 32.3849 39.5142 32.1512C41.1136 29.3324 42.1999 25.7913 42.1999 22.3308C42.1999 20.1514 41.8799 18.3783 41.373 16.7937C41.0594 15.8176 40.6775 14.8648 40.2302 13.9423C40.1796 13.8609 40.1534 13.7667 40.1547 13.6709C40.2353 13.732 40.3004 13.8115 40.3444 13.9023C40.6536 14.4669 41.3462 15.8497 41.6713 16.7497C42.1101 17.9508 42.8918 19.6137 42.8918 22.3308C42.8964 33.4221 33.8148 42.6191 22.4601 42.6128ZM5.40548 32.2369L20.3213 21.5108L19.0453 20.7828L5.75633 31.8341C4.26378 29.1284 3.22722 25.6542 3.22722 22.3502C3.22722 11.8875 11.5528 3.41674 22.0944 3.35217L19.375 20.2737L20.6459 21.0125L22.3544 3.35502C22.3864 3.13217 22.539 3.13217 22.539 3.35502L22.6395 21.9753L25.6664 20.1977L22.7658 3.34817C33.1268 3.62531 41.7107 11.9858 41.7107 22.3171C41.7107 25.6484 40.705 29.1284 39.181 31.8512L25.9058 20.7885L24.6275 21.5188L38.8959 31.8712C39.2388 32.1152 39.1336 32.2261 38.769 32.0226L22.7464 22.7782V26.2427L38.8056 32.3815C35.4399 37.8729 29.3692 41.386 22.419 41.386C15.4534 41.386 9.48028 37.8746 6.11462 32.3746L22.2024 26.2319V22.7679L5.54205 32.3964C5.14663 32.6141 5.04149 32.4924 5.40491 32.2369H5.40548ZM4.9952 32.4426C4.29064 30.9815 3.54836 28.9227 3.24094 27.2941C3.22608 27.2084 3.22951 27.1204 3.25237 27.037C3.3038 27.1136 3.34265 27.1981 3.36951 27.2867C3.85236 28.7815 4.27407 30.1261 5.37577 32.1455L4.9952 32.4426ZM42.8616 18.7582C42.8108 18.6847 42.7716 18.6037 42.7456 18.5183C41.1884 13.7137 39.8622 11.8263 37.3062 9.01952C33.9382 5.32357 28.4412 2.46589 22.5904 2.45961C11.4077 2.45846 2.33581 11.5372 2.33581 22.7245C2.33581 26.0502 3.06094 28.9233 3.64379 30.3661C4.32664 32.0392 5.50891 34.2929 5.56777 34.3946C5.60948 34.4775 5.63062 34.5695 5.63062 34.6626C5.55382 34.6012 5.48911 34.526 5.43977 34.4409C5.10091 33.9483 3.71179 31.4455 3.28151 30.3512C2.33581 27.9707 1.64153 25.3736 1.64153 22.6479C1.64153 11.1178 10.9683 1.76762 22.5007 1.76762C32.8028 1.76762 41.1079 8.92752 42.8616 18.5114C42.8787 18.5931 42.8787 18.6771 42.8616 18.7582Z" fill="white" fill-opacity="0.6"/>
<path d="M34.8222 29.3501L23.8423 21.9885L22.9395 22.5045L34.7696 29.4341C34.9799 29.5553 35.0244 29.4799 34.8222 29.3501Z" fill="white" fill-opacity="0.6"/>
</g>
<defs>
<clipPath id="clip0_593_5281">
<rect width="169.141" height="43.9994" fill="white" transform="translate(0.453125 0.000244141)"/>
</clipPath>
</defs>
</svg>
