<svg width="73" height="32" viewBox="0 0 73 32" fill="none" xmlns="http://www.w3.org/2000/svg">
<g clip-path="url(#clip0_593_5286)">
<path d="M31.0488 11.1677C34.4775 2.76036 28.0626 0.474976 23.8966 0.474976H10.0714C10.4738 0.727704 10.7698 1.11794 10.9039 1.5725C11.0379 2.02705 11.0008 2.51468 10.7996 2.94393L2.74409 28.5697C2.55135 29.0681 2.26045 29.523 1.88847 29.9076C1.51649 30.2922 1.07094 30.5987 0.578125 30.8092H11.7581C11.3148 30.6754 10.9424 30.3729 10.7216 29.9674C10.5007 29.5621 10.4493 29.0863 10.5784 28.6432L13.5001 19.373C13.5001 19.373 26.9658 21.2087 31.012 11.1677H31.0488ZM20.1822 2.83378C21.6478 2.83378 25.7124 3.03571 23.0763 10.672C20.3113 18.694 14.2558 17.0418 14.2558 17.0418L18.7261 2.83378H20.173H20.1822Z" fill="white" fill-opacity="0.6"/>
<path d="M39.9982 30.8276H47.5283C44.7659 29.8169 42.252 28.2303 40.1548 26.1742C41.8174 24.6 42.8242 22.4604 42.9752 20.1806H39.0764C39.3026 20.3251 39.4892 20.5231 39.6194 20.757C39.7498 20.9908 39.8198 21.2533 39.823 21.5208C39.7948 22.5448 39.4433 23.534 38.8183 24.3478C37.3983 22.4546 36.4506 20.2525 36.0533 17.9228C37.9793 17.1439 39.7926 16.113 41.4453 14.8573C42.024 14.423 42.5034 13.871 42.8514 13.238C43.1994 12.6051 43.4082 11.9056 43.4636 11.186V11.0758C43.466 10.6263 43.3773 10.181 43.2031 9.76631C43.029 9.35157 42.7728 8.976 42.4498 8.662C41.8084 8.08944 41.0381 7.67887 40.2041 7.46482C39.37 7.25078 38.4964 7.23953 37.6571 7.43207C36.3883 7.68443 35.2072 8.25997 34.2285 9.10251C31.9611 11.2319 31.6754 14.7289 31.6754 16.3167V17.161L31.3159 17.3079C29.6568 17.9228 25.2236 19.0884 23.6475 22.7231C23.32 23.5565 23.1543 24.444 23.1591 25.3389C23.1396 26.4422 23.437 27.5282 24.0163 28.4687C25.1314 30.2126 27.0301 31.314 30.0625 31.2223C33.3621 31.1672 36.6156 28.9276 37.187 28.4687C38.0252 29.3255 38.952 30.0916 39.9521 30.7542L39.9982 30.8276ZM39.9982 10.5527C39.6111 12.9941 36.4313 15.4631 35.657 15.7936C35.4202 13.9522 35.799 12.0845 36.7354 10.4793C37.4911 9.30444 38.5143 8.7905 39.3344 9.08418C39.9982 9.3136 40.0627 9.91021 40.0074 10.5527H39.9982ZM35.611 26.89C34.4317 27.5664 33.1334 28.0118 31.786 28.2025C30.2652 28.3493 27.7399 27.762 27.7583 24.7331C27.7583 22.145 30.5786 20.2542 32.1179 19.5933C32.8156 22.2228 34.0036 24.698 35.6203 26.89H35.611Z" fill="white" fill-opacity="0.6"/>
<path d="M62.8645 2.86141C67.3346 1.78755 71.0213 5.27531 71.3532 5.51395L72.625 1.4755C70.8647 0.943159 58.0255 -3.37982 48.9563 6.92742C43.3802 13.2695 42.0162 26.2569 49.0854 29.7447C56.6524 33.4711 65.0119 29.1757 65.6756 28.8728L69.0858 17.9047C69.2625 17.2528 69.6046 16.6572 70.079 16.1751C70.5536 15.6929 71.1448 15.3403 71.7955 15.1512H59.8137C60.355 15.2995 60.8155 15.6545 61.0951 16.1393C61.3747 16.624 61.4508 17.1991 61.3069 17.7395L57.8505 28.7075C57.3897 28.7902 47.712 31.1948 53.1316 14.3619C54.3204 10.7456 57.574 4.12803 62.892 2.85225L62.8645 2.86141Z" fill="white" fill-opacity="0.6"/>
</g>
<defs>
<clipPath id="clip0_593_5286">
<rect width="72.6406" height="31.9965" fill="white" transform="translate(0.3125 0.00170898)"/>
</clipPath>
</defs>
</svg>
