<svg width="132" height="44" viewBox="0 0 132 44" fill="none" xmlns="http://www.w3.org/2000/svg">
<g clip-path="url(#clip0_593_5269)">
<path fill-rule="evenodd" clip-rule="evenodd" d="M0.625 17.6009C0.625 11.3009 5.21355 5.50061 13.9099 5.50061C20.8802 5.50061 26.299 10.4537 26.3209 17.0795C26.3209 23.9877 21.9508 29.5273 15.8765 29.5273C13.8444 29.5273 11.9216 28.4628 11.2661 27.2246C11.2661 27.2246 10.2609 31.048 10.0206 31.9821C9.34325 34.5672 6.93972 38.1517 6.74307 38.4124C6.72121 38.4558 6.65566 38.4993 6.59012 38.4993C6.48086 38.4993 6.37161 38.4124 6.37161 38.3038C6.30606 37.9345 5.60686 33.6331 6.21866 30.9828C6.59012 29.4187 8.57849 21.0333 8.57849 21.0333C8.16334 20.0991 7.94483 19.0781 7.96668 18.0571C7.96668 15.2764 9.5836 13.1909 11.6157 13.1909C13.32 13.1909 14.1503 14.4726 14.1503 16.015C14.1503 17.0769 13.732 18.4631 13.2889 19.9319C13.0159 20.8368 12.7334 21.7732 12.5333 22.6842C12.0527 24.6611 13.5385 26.2904 15.5051 26.2904C19.0666 26.2904 21.8197 22.5539 21.8197 17.1447C21.8197 12.3653 18.3674 9.01988 13.4293 9.01988C7.70448 9.01988 4.33954 13.2778 4.33954 17.6878C4.33954 19.404 4.99505 21.2505 5.82536 22.2498C5.95646 22.4235 6.02201 22.6408 5.95646 22.8363C5.87703 23.1635 5.74456 23.684 5.62639 24.1484C5.51701 24.5782 5.41986 24.9598 5.38835 25.0956C5.30095 25.4649 5.1043 25.5301 4.711 25.3563C2.19822 24.1832 0.625 20.5336 0.625 17.6009ZM69.1494 21.2063C70.5478 21.2063 71.0286 22.0536 71.0286 23.0529C71.0286 24.7473 69.7175 25.7683 67.6417 25.7683C66.8333 25.7466 66.0249 25.6162 65.26 25.399C65.5223 23.835 66.5274 21.2063 69.1494 21.2063ZM98.9748 21.2063C100.242 21.2063 100.854 22.0536 100.854 23.0529C100.854 24.7473 99.5431 25.7683 97.4669 25.7683C96.6585 25.7466 95.85 25.6162 95.0855 25.399C95.3477 23.835 96.4843 21.2063 98.9748 21.2063ZM127.249 21.3367H130.418C130.854 21.3367 131.116 21.1629 131.204 20.7501C131.259 20.5367 131.327 20.2659 131.394 19.9951C131.511 19.5214 131.629 19.0477 131.685 18.8819C131.772 18.5125 131.576 18.2519 131.16 18.2519H128.014C128.052 18.097 128.111 17.8811 128.181 17.6201C128.517 16.3798 129.128 14.1216 129.128 12.5602C129.128 8.78021 125.894 5.56506 121.306 5.56506C116.128 5.56506 112.763 9.01917 112.763 13.8636C112.785 15.3191 113.199 16.7312 113.964 17.9694C113.68 17.9477 113.396 17.9477 113.112 17.9477C109.179 17.9477 106.71 20.0767 106.71 23.1615C106.71 26.0507 109.005 27.1804 111.168 27.9407C111.462 28.0438 111.753 28.1382 112.033 28.2295C113.59 28.7352 114.86 29.1477 114.86 30.4173C114.86 31.4166 113.898 32.0031 111.976 32.0031C109.725 32.0031 108.48 30.9387 108.152 30.5476C108.501 30.2435 108.698 29.7873 108.676 29.3093C108.676 28.3752 108.021 27.6366 106.797 27.6366C105.771 27.6366 104.896 28.4621 104.678 29.57C103.017 30.9169 101.226 31.7859 98.6695 31.7859C96.1341 31.7859 94.8454 30.4825 94.8454 27.7018C95.4357 27.8756 96.9866 28.0928 97.9922 28.0928C102.253 28.0928 105.158 26.1593 105.158 22.2925C105.158 20.207 103.323 18.0346 99.6962 18.0346H99.6742C94.9104 18.0346 92.2233 21.0325 91.0652 24.3562C90.9014 24.3128 90.7375 24.2748 90.5736 24.2368C90.4097 24.1988 90.2458 24.1607 90.0819 24.1173C90.3879 23.3135 90.5408 22.4446 90.5408 21.5974C90.5408 19.9681 89.5139 18.0346 86.8044 18.0346C84.9034 18.0346 83.1117 19.2729 81.8662 21.1194C82.0055 20.5657 82.1267 20.102 82.2173 19.7549C82.3258 19.3394 82.3906 19.0911 82.3906 19.0556C82.4781 18.7298 82.3469 18.3822 81.8444 18.3822H79.0476C78.6543 18.3822 78.3702 18.5125 78.261 18.9688C78.1954 19.2729 77.234 23.0312 76.2944 26.659C75.7045 28.94 72.6673 31.7642 68.8435 31.7642C66.3307 31.7642 65.0197 30.3738 65.0197 27.5931C65.6753 27.8538 67.1392 28.0711 68.1661 28.0711C72.6018 28.0711 75.3549 26.1376 75.3549 22.2708C75.3549 20.1853 73.5195 18.0129 69.8923 18.0129H69.8705C64.4953 18.0129 61.2178 22.1622 60.6496 26.8762C60.4093 28.8314 58.7487 31.5252 56.957 31.5252C56.083 31.5252 55.5804 30.9821 55.5804 30.048C55.5804 29.4132 55.9347 28.0605 56.3958 26.3001V26.3C56.5186 25.8311 56.6489 25.3333 56.7822 24.8125C56.9233 24.2795 57.1007 23.5654 57.3029 22.752L57.303 22.7517V22.7515C57.414 22.3053 57.5324 21.8291 57.6562 21.3367H60.5841C61.0212 21.3367 61.2615 21.1629 61.3708 20.7501C61.5018 20.1636 61.764 19.1425 61.8514 18.8819C61.9388 18.5125 61.7422 18.2519 61.327 18.2519H58.4428C58.4428 18.2519 59.7538 13.0163 59.7975 12.8643C59.9286 12.3213 59.4698 12.0171 59.0109 12.1257C59.0109 12.1257 56.7822 12.5601 56.3671 12.647C55.9518 12.7339 55.6241 12.9729 55.4711 13.5594L54.2913 18.2736H51.9969C51.56 18.2736 51.2977 18.4474 51.2104 18.8601C51.1548 19.0732 51.0877 19.3436 51.0206 19.614L51.0204 19.6149C50.9028 20.0887 50.7852 20.5625 50.7297 20.7284C50.6422 21.0977 50.839 21.3584 51.2541 21.3584H53.5046C53.4828 21.4236 52.6961 24.4431 52.0407 27.1587C51.7348 28.4621 50.7078 31.5252 49.0472 31.5252C48.042 31.5252 47.6269 31.0256 47.6269 29.9393C47.6269 29.1177 48.0225 27.6983 48.4301 26.2361C48.8631 24.683 49.3094 23.0817 49.3094 22.097C49.3094 19.5336 47.9329 18.0346 45.0923 18.0346C43.3006 18.0346 41.4433 19.186 40.6567 20.1853C40.6567 20.1853 40.8971 19.3598 40.9844 19.0339C41.0719 18.7732 40.9189 18.4908 40.6567 18.4039C40.5911 18.3822 40.5038 18.3822 40.4382 18.3822H37.685C37.0951 18.3822 36.9421 18.7081 36.8548 19.0339C36.8311 19.1043 36.5334 20.2777 36.113 21.9343C35.7552 23.3445 35.3085 25.1047 34.8664 26.8328C34.2109 29.418 32.6158 31.5687 30.9115 31.5687C30.0375 31.5687 29.6442 31.0256 29.6442 30.0914C29.6442 29.3871 30.0469 27.7822 30.5581 25.7442V25.744L30.5584 25.7426C30.6306 25.4553 30.7048 25.1592 30.7804 24.8559C31.1832 23.277 31.5556 21.8488 31.8276 20.806L31.8278 20.8054C32.0721 19.8686 32.2352 19.243 32.2662 19.0991C32.3536 18.7298 32.2007 18.4256 31.72 18.4256H28.9232C28.4206 18.4256 28.2239 18.6863 28.1365 19.0556C28.1365 19.0556 27.3499 22.0101 26.5196 25.3121C26.4644 25.5278 26.4088 25.7438 26.3534 25.9592L26.3525 25.9629C25.7941 28.1329 25.2522 30.2394 25.2522 31.2862C25.2522 33.3283 26.17 34.8706 28.7046 34.8706C30.6493 34.8706 32.2007 33.8931 33.3805 32.6331C33.3422 32.7807 33.307 32.9169 33.2753 33.04L33.2751 33.0405C33.162 33.4785 33.0917 33.7506 33.0747 33.7845C32.9654 34.1755 33.0965 34.5231 33.5553 34.5231H36.4177C36.9203 34.5231 37.0951 34.3275 37.2044 33.8931C37.3136 33.4587 39.433 25.1383 39.433 25.1383C40.0012 22.9008 41.3996 21.4019 43.3661 21.4019C44.3057 21.4019 45.0923 22.0101 45.0049 23.205C44.9617 23.7202 44.6896 24.7686 44.3765 25.9757V25.9757C43.8976 27.8217 43.3224 30.0384 43.3224 31.2862C43.3224 32.8504 43.9123 34.8706 46.8622 34.8706C48.8724 34.8706 50.3801 33.9149 51.4507 32.6549C51.844 33.98 52.8928 34.8706 54.8157 34.8706C58.0058 34.8706 59.9286 32.9807 61.0648 31.0907C62.0044 33.2849 64.2112 34.8706 67.4233 34.8706C70.3074 34.8924 73.0825 33.7193 75.049 31.6121C74.8932 32.2111 74.7621 32.7217 74.665 33.0996C74.558 33.5166 74.4923 33.7721 74.4809 33.8062C74.3716 34.1973 74.5464 34.5231 75.0272 34.5231H77.8458C78.2172 34.5449 78.545 34.2841 78.6106 33.9149C78.6293 33.8309 78.7165 33.4947 78.8549 32.9613C79.0389 32.2522 79.3133 31.1946 79.6376 29.9176C80.7519 25.6597 82.5217 21.2281 85.1875 21.2281C86.127 21.2281 86.5203 21.7494 86.5203 22.575C86.5203 22.8791 86.4548 23.205 86.3018 23.4873C85.0127 23.2267 83.9639 23.8566 83.9639 25.2252C83.9639 26.1159 84.9253 26.9414 86.1926 26.9414C87.1759 26.9414 87.9843 26.7025 88.618 26.268C88.8479 26.3187 89.0876 26.3695 89.3335 26.4216L89.334 26.4217C89.719 26.5033 90.119 26.588 90.519 26.6807C90.4315 27.289 90.366 27.919 90.366 28.549C90.366 31.9814 92.9443 34.8924 97.3578 34.8924C100.811 34.8924 103.039 33.7411 105.115 32.0249C106.098 33.6324 108.589 34.9141 111.845 34.9141C116.302 34.9141 118.858 32.6114 118.858 29.5483C118.858 26.7893 116.564 25.7683 114.227 24.9211C113.993 24.8367 113.765 24.7572 113.543 24.6801C111.94 24.1219 110.709 23.6932 110.709 22.5098C110.709 21.4019 111.583 20.9022 113.068 20.9022C113.767 20.9022 114.489 21.0108 115.166 21.2281C115.559 22.1839 116.346 23.2483 117.701 23.2483C118.858 23.2483 119.362 22.336 119.362 21.5105C119.362 20.5511 118.709 19.9376 117.932 19.2078C116.791 18.1362 115.384 16.8136 115.384 13.7767C115.384 10.605 117.198 7.99814 120.934 7.99814C123.535 7.99814 125.239 9.62746 125.239 12.2777C125.239 14.4501 123.906 18.3387 123.906 18.3387H121.656C121.219 18.3387 120.956 18.5125 120.868 18.9253C120.813 19.1383 120.747 19.4087 120.68 19.6791L120.679 19.6802V19.6806C120.561 20.1542 120.444 20.6278 120.388 20.7936C120.301 21.1629 120.497 21.4236 120.912 21.4236H123.12C123.12 21.4236 120.847 29.7873 120.847 31.308C120.847 33.35 122.005 34.8924 124.54 34.8924C128.124 34.8924 130.374 32.5897 131.335 29.2225C131.401 29.0487 131.335 28.8531 131.16 28.7662C131.116 28.7445 131.051 28.7445 131.007 28.7445H129.631C129.39 28.7445 129.172 28.9183 129.128 29.1573C128.822 30.3521 128.058 31.6121 126.55 31.6121C125.676 31.6121 125.173 31.069 125.173 30.1349C125.173 29.4245 125.583 27.8825 126.146 25.764C126.22 25.4855 126.297 25.1972 126.376 24.8993C126.703 23.5959 127.249 21.3367 127.249 21.3367ZM33.8155 13.9945C33.7062 15.4717 32.4826 16.6448 31.0624 16.6448C29.6421 16.6448 28.5714 15.45 28.6588 13.9945C28.7681 12.5172 29.9917 11.3441 31.412 11.3441C32.8322 11.3441 33.9029 12.539 33.8155 13.9945Z" fill="white" fill-opacity="0.6"/>
</g>
<defs>
<clipPath id="clip0_593_5269">
<rect width="131.078" height="43.9983" fill="white" transform="translate(0.625 0.000854492)"/>
</clipPath>
</defs>
</svg>
