<svg width="89" height="44" viewBox="0 0 89 44" fill="none" xmlns="http://www.w3.org/2000/svg">
<g clip-path="url(#clip0_593_5265)">
<path fill-rule="evenodd" clip-rule="evenodd" d="M48.1313 3.66882V8.63715L41.9326 9.9588V4.96597L48.1313 3.66882ZM61.0234 11.4023C58.6031 11.4023 57.0472 12.5281 56.1828 13.3113L55.8618 11.7938H50.4287V40.3312L56.6027 39.034L56.6274 32.1077C57.5164 32.7441 58.8254 33.6497 60.9986 33.6497C65.4193 33.6497 69.4447 30.1253 69.4447 22.3669C69.42 15.2693 65.3451 11.4023 61.0234 11.4023ZM59.5416 28.2652C58.0845 28.2652 57.2201 27.7512 56.6274 27.115L56.6027 18.0349C57.2448 17.3251 58.1339 16.8357 59.5416 16.8357C61.7889 16.8357 63.3447 19.332 63.3447 22.5382C63.3447 25.8178 61.8136 28.2652 59.5416 28.2652ZM88.9065 22.6116C88.9065 16.3461 85.8441 11.4023 79.9911 11.4023C74.1134 11.4023 70.5571 16.3461 70.5571 22.5627C70.5571 29.9295 74.7555 33.6496 80.7813 33.6496C83.7202 33.6496 85.9429 32.9888 87.6223 32.0588V27.1639C85.9429 27.996 84.0166 28.51 81.5717 28.51C79.1761 28.51 77.0522 27.6778 76.7806 24.7898H88.8571C88.8571 24.6557 88.8659 24.3521 88.8759 24.0016L88.8761 23.9961V23.9957V23.9955V23.9948L88.8762 23.9943V23.9939C88.8901 23.5145 88.9065 22.9497 88.9065 22.6116ZM76.7065 20.2865C76.7065 17.5209 78.4106 16.3706 79.9664 16.3706C81.4729 16.3706 83.0782 17.5209 83.0782 20.2865H76.7065ZM48.1313 11.8176H41.9326V33.2328H48.1313V11.8176ZM34.897 11.82L35.2921 13.6311C36.7492 10.9878 39.6387 11.5263 40.429 11.82V17.4491C39.6634 17.1799 37.1937 16.8372 35.7367 18.7218V33.2352H29.5626V11.82H34.897ZM22.9424 6.50801L16.9166 7.78068L16.8919 27.3848C16.8919 31.0069 19.6332 33.6747 23.2882 33.6747C25.3133 33.6747 26.7951 33.3076 27.6101 32.867V27.8987C26.8197 28.2169 22.9178 29.3428 22.9178 25.7205V17.0321H27.6101V11.819H22.9178L22.9424 6.50801ZM8.34732 16.7133C7.03842 16.7133 6.24814 17.0804 6.24814 18.0349C6.24814 19.077 7.60822 19.5355 9.2956 20.1042C12.0463 21.0314 15.6668 22.2518 15.6821 26.7723C15.6821 31.1532 12.1505 33.6741 7.01372 33.6741C4.88985 33.6741 2.56841 33.258 0.271658 32.279V26.4541C2.34614 27.5799 4.96394 28.4121 7.01372 28.4121C8.39671 28.4121 9.38459 28.045 9.38459 26.9191C9.38459 25.7648 7.91021 25.2371 6.13026 24.6001C3.41952 23.6299 0 22.4061 0 18.3285C0 13.9966 3.33399 11.4023 8.34732 11.4023C10.3971 11.4023 12.4222 11.7204 14.472 12.5281V18.2796C12.595 17.2762 10.2243 16.7133 8.34732 16.7133Z" fill="white" fill-opacity="0.6"/>
</g>
<defs>
<clipPath id="clip0_593_5265">
<rect width="88.9062" height="43.9948" fill="white" transform="translate(0 0.00256348)"/>
</clipPath>
</defs>
</svg>
