<svg width="164" height="32" viewBox="0 0 164 32" fill="none" xmlns="http://www.w3.org/2000/svg">
<g clip-path="url(#clip0_593_5291)">
<path d="M97.5787 9.46616V6.1427H85.7227V23.2423H97.5787V19.7741H90.5227V15.9836H96.391V12.6642H90.5227V9.46616H97.5787Z" fill="white" fill-opacity="0.6"/>
<path d="M118.485 19.868H111.078V6.1427H106.219V23.2423H118.485V19.868Z" fill="white" fill-opacity="0.6"/>
<path d="M157.621 12.6593C154.342 11.9206 153.194 11.835 153.194 10.5305C153.194 9.32006 154.819 8.94355 155.753 8.94355C157.265 8.94355 159.05 9.29606 160.869 10.2288L162.193 7.08224C160.328 6.06585 157.936 5.6427 155.635 5.6427C151.113 5.6427 148.079 7.47727 147.952 11.0538C147.823 14.3156 150.475 15.5356 152.912 16.0391C155.261 16.5246 157.645 16.9402 157.693 18.3358C157.736 19.6231 156.579 20.1745 154.394 20.1745C152.372 20.1745 150.491 19.5244 148.569 18.7192L147.445 22.1394C149.655 23.0789 151.898 23.5967 154.21 23.5967C157.422 23.5967 159.766 23.0954 161.491 21.4756C162.688 20.3632 163.079 19.0203 163.079 17.7385C163.082 15.0357 161.397 13.5132 157.621 12.6593Z" fill="white" fill-opacity="0.6"/>
<path d="M78.8285 9.5183V6.1427H63.916V9.5183H68.9541V23.2423H73.7843V9.5183H78.8285Z" fill="white" fill-opacity="0.6"/>
<path d="M135.061 6.1427V17.0067C135.061 17.8579 135.061 18.0931 135.01 18.4243C134.854 19.4599 133.851 20.0607 132.251 20.082C131.065 20.0628 130.198 19.7123 129.793 19.093C129.59 18.7748 129.491 18.2028 129.491 17.2894V6.1427H124.451V17.9271C124.451 19.5601 124.67 20.2973 125.407 21.2293C126.623 22.7498 128.995 23.5494 132.261 23.5494C132.297 23.5494 132.329 23.5494 132.368 23.5494C132.385 23.5494 132.415 23.5494 132.439 23.5494C136.812 23.5494 139.069 21.8445 139.722 20.2493C140.048 19.4757 140.072 19.1095 140.072 17.5485V6.1427H135.061Z" fill="white" fill-opacity="0.6"/>
<path d="M66.1922 1.46058L37.9316 7.08705V9.05808L38.0215 9.03477C56.6908 4.4967 66.1916 1.76714 66.2684 1.74794C66.3739 1.7205 66.411 1.63821 66.3966 1.56894C66.3808 1.49624 66.3047 1.43589 66.1922 1.46058Z" fill="white" fill-opacity="0.6"/>
<path d="M42.2493 2.68134V2.67859V2.68134ZM43.2156 0.922892C41.8419 1.00107 39.2983 3.0359 37.9019 4.24432C32.3419 9.05465 28.2078 13.4761 25.2019 18.1068C18.9356 21.4632 10.9451 24.915 3.0129 27.6088L2.82156 27.6733L1.29492 31.7841L2.1666 31.4473C7.21286 29.5243 15.6354 25.9128 23.2706 21.898C22.8407 23.0447 22.6239 24.0988 22.6239 25.0596C22.6239 25.7763 22.7439 26.443 22.9833 27.0485C23.4634 28.2583 24.4098 29.1745 25.7218 29.6951C27.6756 30.4749 30.3414 30.4893 33.3831 29.5682C41.1534 27.2131 50.3701 19.9818 52.3768 18.5436L52.4536 18.4895C52.5325 18.4326 52.538 18.3468 52.5051 18.2885C52.4611 18.2221 52.3686 18.2042 52.2925 18.2509H52.2917H52.2925L52.1937 18.3105C50.0402 19.6032 39.576 25.8161 32.774 27.6403C29.3093 28.5697 26.6689 28.0621 25.673 26.6693C25.3274 26.1933 25.1608 25.5912 25.1608 24.8889C25.1608 23.5179 25.8061 21.7725 27.0488 19.8323C28.1928 19.1815 29.2613 18.545 30.2242 17.9401C36.8601 14.2107 44.5056 6.95947 44.8321 2.5332C44.8335 2.50302 44.8335 2.46804 44.8335 2.43512C44.8335 2.05312 44.6683 1.66015 44.3781 1.37005C44.0668 1.05251 43.6567 0.894088 43.2156 0.922892ZM42.4757 3.03247C42.9111 2.7506 43.0367 2.92685 42.9084 3.24508C42.7013 3.75327 41.7432 6.81066 34.6292 12.6511C32.7727 14.1716 31.4525 15.0254 28.7792 16.6082C33.1568 10.4736 39.5479 4.93357 42.4757 3.03247Z" fill="white" fill-opacity="0.6"/>
<path d="M37.8407 7.10571L8.10763 13.4968L6.96094 16.5892L37.9332 9.05755L38.8913 8.51645L38.8646 7.10915L37.8407 7.10571Z" fill="white" fill-opacity="0.6"/>
</g>
<defs>
<clipPath id="clip0_593_5291">
<rect width="162.812" height="31.9978" fill="white" transform="translate(0.671875 0.00109863)"/>
</clipPath>
</defs>
</svg>
